<svg xmlns="http://www.w3.org/2000/svg" viewBox="0 -10 512 511" width="512pt"><path d="M0 341.5h512v150H0zm0 0" fill="#005fe1"/><path d="M256 341.5h256v150H256zm0 0" fill="#00429d"/><path d="M455.48 221.5H56.52L0 340.49v31.01h512v-31.01zm0 0" fill="#2682ff"/><path d="M455.48 221.5H256v150h256v-31.01zm0 0" fill="#005fe1"/><path d="M256 .5C181.29.5 120.5 61.29 120.5 136c0 45.57 22.7 87.82 60.72 113A134.89 134.89 0 0 0 256 271.5c26.73 0 52.59-7.78 74.77-22.5a135.23 135.23 0 0 0 60.73-113C391.5 61.29 330.71.5 256 .5zm0 0" fill="#ffde55"/><path d="M256 .5v271c26.73 0 52.59-7.78 74.77-22.5a135.23 135.23 0 0 0 60.73-113C391.5 61.29 330.71.5 256 .5zm0 0" fill="#ff9f22"/><path d="M256 50.5c-47.14 0-85.5 38.36-85.5 85.5s38.36 85.5 85.5 85.5 85.5-38.36 85.5-85.5-38.36-85.5-85.5-85.5zm0 0" fill="#ff9f22"/><path d="M256 50.5v171c47.14 0 85.5-38.36 85.5-85.5S303.14 50.5 256 50.5zm0 0" fill="#ff6426"/><path d="M124.5 281.5h263v30h-263zm0 0" fill="#005fe1"/><path d="M256 281.5h131.5v30H256zm0 0" fill="#00429d"/></svg>
