<svg viewBox="0 0 512 512" xmlns="http://www.w3.org/2000/svg"><linearGradient id="a" x1="236.94" x2="236.94" y1="-63.1" y2="545.4" gradientTransform="matrix(1.0667 0 0 -1.0667 3.27 557.53)" gradientUnits="userSpaceOnUse"><stop stop-color="#fff" offset="0"/><stop stop-color="#E8EFEE" offset="1"/></linearGradient><circle cx="256" cy="256" r="256" fill="url(#a)"/><linearGradient id="b" x1="236.94" x2="236.94" y1="617.28" y2="28.5" gradientTransform="matrix(1.0667 0 0 -1.0667 3.27 557.53)" gradientUnits="userSpaceOnUse"><stop stop-color="#fff" offset="0"/><stop stop-color="#E8EFEE" offset="1"/></linearGradient><circle cx="256" cy="256" r="247.7" fill="url(#b)"/><linearGradient id="c" x1="123.19" x2="339.64" y1="396.44" y2="179.99" gradientTransform="matrix(1.0667 0 0 -1.0667 3.27 557.53)" gradientUnits="userSpaceOnUse"><stop stop-color="#00A6F9" offset="0"/><stop stop-color="#0071E2" offset="1"/></linearGradient><circle cx="256" cy="256" r="223.39" fill="url(#c)"/><radialGradient id="d" cx="242.64" cy="276.36" r="226.11" gradientTransform="matrix(1.0667 0 0 -1.0667 3.27 557.53)" gradientUnits="userSpaceOnUse"><stop stop-color="#00A6F9" stop-opacity="0" offset="0"/><stop stop-color="#00A4F9" stop-opacity=".45" offset=".45"/><stop stop-color="#009DF7" stop-opacity=".62" offset=".62"/><stop stop-color="#0092F4" stop-opacity=".73" offset=".73"/><stop stop-color="#0081F0" stop-opacity=".83" offset=".83"/><stop stop-color="#006BEB" stop-opacity=".91" offset=".91"/><stop stop-color="#0050E4" stop-opacity=".98" offset=".98"/><stop stop-color="#0046E2" offset="1"/></radialGradient><circle cx="256" cy="256" r="223.39" fill="url(#d)"/><path d="M319.14 265.65l71.04-9.65-71.04-9.65c-15.32-2.08-22.7-19.91-13.34-32.21l25.24-33.18-33.18 25.24c-12.3 9.36-30.13 1.98-32.2-13.34L256 121.82l-9.65 71.04c-2.08 15.31-19.9 22.7-32.2 13.34l-33.19-25.24 25.24 33.18c9.36 12.3 1.98 30.13-13.34 32.2L121.82 256l71.04 9.65c15.32 2.08 22.7 19.9 13.34 32.2l-25.24 33.19 33.18-25.24c12.3-9.36 30.13-1.98 32.2 13.34l9.66 71.04 9.65-71.04c2.08-15.32 19.9-22.7 32.21-13.34l33.18 25.24-25.24-33.18c-9.36-12.3-1.98-30.13 13.34-32.21z" fill="#0071E2"/><linearGradient id="e" x1="373.34" x2="192.28" y1="146.29" y2="327.34" gradientTransform="matrix(1.0667 0 0 -1.0667 3.27 557.53)" gradientUnits="userSpaceOnUse"><stop stop-color="#008BF2" stop-opacity="0" offset="0"/><stop stop-color="#0046E2" offset="1"/></linearGradient><path d="M479.34 259.8L367.89 148.35c-1.12-3.57-5.42-5.95-9.35-3.58l-133.32 80.46-80.46 133.32a6.24 6.24 0 0 0 1.7 8.4c.02 0 66.03 66 112.41 112.4 120.78-1.53 218.45-98.9 220.46-219.56z" fill="url(#e)"/><linearGradient id="f" x1="271.04" x2="309.84" y1="351.99" y2="313.19" gradientTransform="matrix(1.0667 0 0 -1.0667 3.27 557.53)" gradientUnits="userSpaceOnUse"><stop stop-color="#D63305" offset="0"/><stop stop-color="#CF3004" offset=".37"/><stop stop-color="#BC2602" offset=".9"/><stop stop-color="#B72401" offset="1"/></linearGradient><path d="M358.55 144.77l-133.32 80.46L256 256l30.78 30.78 80.46-133.32c3.4-5.65-3.03-12.1-8.69-8.69z" fill="url(#f)"/><linearGradient id="g" x1="285.64" x2="315.28" y1="337.39" y2="307.75" gradientTransform="matrix(1.0667 0 0 -1.0667 3.27 557.53)" gradientUnits="userSpaceOnUse"><stop stop-color="#960000" offset="0"/><stop stop-color="#9C0700" stop-opacity=".67" offset=".33"/><stop stop-color="#AE1A01" stop-opacity=".19" offset=".81"/><stop stop-color="#B72401" stop-opacity="0" offset="1"/></linearGradient><path d="M366.29 145.71L256 256l30.77 30.77 80.46-133.32a6.18 6.18 0 0 0-.94-7.74z" fill="url(#g)"/><linearGradient id="h" x1="162.44" x2="228.7" y1="253.79" y2="187.53" gradientTransform="matrix(1.0667 0 0 -1.0667 3.27 557.53)" gradientUnits="userSpaceOnUse"><stop stop-color="#fff" offset="0"/><stop stop-color="#E8EFEE" offset="1"/></linearGradient><path d="M144.77 358.55l80.46-133.32 61.55 61.55-133.32 80.46c-5.66 3.4-12.1-3.03-8.69-8.69z" fill="url(#h)"/><linearGradient id="i" x1="221.04" x2="156.65" y1="195.19" y2="259.59" gradientTransform="matrix(1.0667 0 0 -1.0667 3.27 557.53)" gradientUnits="userSpaceOnUse"><stop stop-color="#C2CECE" stop-opacity="0" offset="0"/><stop stop-color="#AFBCBC" stop-opacity=".18" offset=".18"/><stop stop-color="#5B6A6A" offset="1"/></linearGradient><path d="M145.71 366.29L256 256l30.77 30.77-133.32 80.46a6.18 6.18 0 0 1-7.74-.94z" fill="url(#i)"/><linearGradient id="j" x1="251.14" x2="271.14" y1="282.89" y2="262.89" gradientTransform="matrix(1.0667 0 0 -1.0667 3.27 557.53)" gradientUnits="userSpaceOnUse"><stop stop-color="#960000" offset="0"/><stop stop-color="#9C0700" stop-opacity=".67" offset=".33"/><stop stop-color="#AE1A01" stop-opacity=".19" offset=".81"/><stop stop-color="#B72401" stop-opacity="0" offset="1"/></linearGradient><path d="M271.97 241.26l-.62-.61L256 256l30.77 30.77 11.56-19.15-26.36-26.36z" fill="url(#j)"/><linearGradient id="k" x1="265.54" x2="201.15" y1="239.69" y2="304.08" gradientTransform="matrix(1.0667 0 0 -1.0667 3.27 557.53)" gradientUnits="userSpaceOnUse"><stop stop-color="#C2CECE" stop-opacity="0" offset="0"/><stop stop-color="#AFBCBC" stop-opacity=".18" offset=".18"/><stop stop-color="#5B6A6A" offset="1"/></linearGradient><path d="M240.65 271.35c.2.2.4.43.61.62l26.36 26.36 19.15-11.56L256 256l-15.35 15.35z" fill="url(#k)"/><linearGradient id="l" x1="236.94" x2="236.94" y1="287.89" y2="267.07" gradientTransform="matrix(1.0667 0 0 -1.0667 3.27 557.53)" gradientUnits="userSpaceOnUse"><stop stop-color="#C2CECE" offset="0"/><stop stop-color="#97AAAA" offset="1"/></linearGradient><circle cx="256" cy="256" r="21.76" fill="url(#l)"/><g fill="#fff"><path d="M256.8 50.88h-1.6a11.7 11.7 0 0 0-11.68 11.69V77.1a11.7 11.7 0 0 0 11.69 11.7h1.59a11.7 11.7 0 0 0 11.7-11.7V62.57a11.7 11.7 0 0 0-11.7-11.7zM256.8 423.2h-1.6a11.7 11.7 0 0 0-11.68 11.7v14.53a11.7 11.7 0 0 0 11.69 11.7h1.59a11.7 11.7 0 0 0 11.7-11.7V434.9a11.7 11.7 0 0 0-11.7-11.69zM449.43 243.51h-14.54a11.7 11.7 0 0 0-11.7 11.7v1.58a11.7 11.7 0 0 0 11.7 11.7h14.54a11.7 11.7 0 0 0 11.7-11.7v-1.59a11.7 11.7 0 0 0-11.7-11.69zM88.8 256.8v-1.6a11.7 11.7 0 0 0-11.69-11.68H62.57a11.7 11.7 0 0 0-11.7 11.69v1.59a11.7 11.7 0 0 0 11.7 11.7H77.1a11.7 11.7 0 0 0 11.7-11.7zM93.38 183.38l-23.04-8.78a3.84 3.84 0 0 0-2.73 7.18l23.04 8.78a3.84 3.84 0 0 0 2.73-7.18zM444.39 330.22l-23.04-8.78a3.84 3.84 0 0 0-2.73 7.18l23.04 8.78a3.84 3.84 0 0 0 2.73-7.18zM335.17 65.39a3.84 3.84 0 0 0-4.96 2.22l-8.77 23.04a3.84 3.84 0 0 0 7.18 2.73l8.77-23.04a3.85 3.85 0 0 0-2.22-4.95zM188.34 416.4a3.84 3.84 0 0 0-4.96 2.22l-8.77 23.04a3.84 3.84 0 0 0 7.18 2.74l8.77-23.04a3.85 3.85 0 0 0-2.22-4.96zM132.22 378.41a3.84 3.84 0 0 0-5.43.16l-16.9 17.95a3.84 3.84 0 0 0 5.59 5.27l16.9-17.95a3.84 3.84 0 0 0-.16-5.43zM401.95 110.05a3.84 3.84 0 0 0-5.43.16l-16.9 17.95a3.84 3.84 0 0 0 5.59 5.27l16.9-17.95a3.84 3.84 0 0 0-.16-5.43zM115.48 109.89a3.84 3.84 0 0 0-5.27 5.59l17.95 16.9a3.84 3.84 0 0 0 5.27-5.58l-17.95-16.91zM383.84 379.61a3.84 3.84 0 0 0-5.27 5.59l17.95 16.9a3.84 3.84 0 0 0 5.27-5.58l-17.95-16.91zM94.74 321.57a3.84 3.84 0 0 0-5.08-1.93l-22.5 10.09a3.84 3.84 0 0 0 3.14 7l22.5-10.09a3.84 3.84 0 0 0 1.99-4.95l-.05-.12zM422.34 192.36l22.5-10.09a3.84 3.84 0 1 0-3.14-7l-22.5 10.08a3.84 3.84 0 0 0 3.14 7zM182.27 67.17a3.84 3.84 0 0 0-7 3.14l10.08 22.5a3.84 3.84 0 1 0 7-3.15l-10.08-22.5zM326.65 419.19a3.84 3.84 0 0 0-7 3.14l10.08 22.5a3.84 3.84 0 1 0 7-3.14l-10.08-22.5z"/></g></svg>