<svg xmlns="http://www.w3.org/2000/svg" viewBox="0 0 512 512"><path d="M394.69 484.73c-.37-1.8-22.36-112.29-22.6-113.42-2.64-12.79-9.8-22.59-20.3-28.9-6.3-3.8-9.87-4.4-13.95-5.65l-75-26.21a10.95 10.95 0 0 1-7.4-10.36v-22.97c-28.72 14.37-58.84 13.46-85.57.41v22.56c0 4.68-2.97 8.84-7.4 10.36l-30.83 10.57h-.03l-44.1 15.64-5.8 1.7c-10.5 3.92-19.59 11.35-24.69 21.74-3.53 7.16-2.48 4.65-19.6 90.61-6.35 32.84-7.75 35.23-6.95 42.57 2.2 20.5 23.3 18.36 23.87 18.61H371c.22-.07 27.81 2.02 23.68-27.26z" fill="#6c7d87"/><path d="M56.42 484.73L79.02 361c-.32 1.5 1.67-16.55 18.65-27.85-18.96 6.73-13.08 4.04-18.92 6.54-11 4.97-19.54 13.41-23.75 25.31-1.68 4.78-.59.58-17.58 85.81-6.34 32.84-7.74 35.23-6.95 42.57 2.2 20.5 23.3 18.36 23.87 18.61H80.1c-18.18 0-26.03-10.63-23.68-27.26z" fill="#566a75"/><path d="M100.95 512H54.34c-.6-.27-24.64 2.14-24.04-22.92.13-5.34.8-5.57 7.11-38.27l.37-1.83h63.17v63.01z" fill="#dd9a5e"/><path d="M62.95 448.98H37.78l-.36 1.83c-6.34 32.82-6.99 32.92-7.12 38.27-.6 24.98 23.56 22.7 24.04 22.91H80.1c-16.74 0-24.38-8.8-24.04-22.9.04-1.64.65-5.07 6.89-40.11z" fill="#d18c54"/><path d="M169.87 273.67v43.16h.03v1.54a23.84 23.84 0 0 0 16.26 22.61c15.6 5.22 35.62 5.82 53 0a23.84 23.84 0 0 0 16.26-22.61v-1.54h.03v-43.16c-27.73 14.78-59 14.18-85.58 0z" fill="#dd9a5e"/><path d="M195.66 325.39h-.03v-39.5a93.88 93.88 0 0 1-25.76-9.22v40.16h.03v1.54a23.84 23.84 0 0 0 16.26 22.61c4.8 1.61 9.88 2.77 15.15 3.44-6.55-8.89-5.55-18.35-5.65-19.03z" fill="#d18c54"/><path d="M100.95 423.7a7.73 7.73 0 0 0-7.72 7.73v80.56h15.45v-80.56a7.73 7.73 0 0 0-7.73-7.73z" fill="#566a75"/><path d="M462.83 512H212.66a18.9 18.9 0 0 1-18.9-18.9c0-6 4.85-10.84 10.83-10.84H470.9c5.98 0 10.83 4.85 10.83 10.83a18.9 18.9 0 0 1-18.9 18.9z" fill="#c6c6c6"/><path d="M242.44 493.1c0-6 4.85-10.84 10.83-10.84H204.6a10.83 10.83 0 0 0-10.83 10.83 18.9 18.9 0 0 0 18.9 18.9h48.68a18.9 18.9 0 0 1-18.9-18.9z" fill="#b7b7b7"/><path d="M446.45 316.83h-217.4a12.4 12.4 0 0 0-12.37 12.36v140.7a12.4 12.4 0 0 0 12.36 12.37h217.4a12.4 12.4 0 0 0 12.37-12.37V329.2a12.4 12.4 0 0 0-12.36-12.36z" fill="#ededed"/><g fill="#dadada"><path d="M242.44 469.9V329.18a12.4 12.4 0 0 1 12.36-12.36h-25.75a12.4 12.4 0 0 0-12.37 12.36v140.7a12.4 12.4 0 0 0 12.37 12.37h25.75a12.4 12.4 0 0 1-12.36-12.37z"/><circle cx="337.75" cy="399.54" r="17.86"/></g><path d="M337.75 381.7c-13.61-.02-22.38 14.8-15.47 26.77 6.92 11.98 24.14 11.79 30.92-.01a17.84 17.84 0 0 1-15.45-26.76z" fill="#c6c6c6"/><path d="M210.33.12C143.77.38 87.58 54.72 87.58 123.74v46.85h247.28V100.5c0-47.87-29.46-58.9-29.46-58.9C268.77-3.56 210.38.12 210.38.12" fill="#4c4846"/><path d="M227.03.86C151.6-7.73 90.21 49.21 87.68 118.87c-.2 5.01-.06 3.14-.1 51.72h29.45v-46.85c0-63.95 48.41-116.12 110-122.88z" fill="#3d3938"/><g fill="#dd9a5e"><path d="M118.03 155.88c-15.5-5.52-32.34 4.75-32.34 19.75 0 14.99 16.83 25.27 32.34 19.74v-39.49zM304.4 155.88c15.51-5.52 32.35 4.75 32.35 19.75 0 14.99-16.84 25.27-32.35 19.74v-39.49z"/></g><g fill="#d18c54"><path d="M87.95 166.55c-9.06 17.2 10.02 35.97 30.08 28.82v-18.16c-11.7 4.17-24.78-.61-30.08-10.66zM304.4 177.21v18.16c20.07 7.15 39.14-11.62 30.08-28.82-3.79 7.2-18.37 14.83-30.08 10.66z"/></g><path d="M301.15 116.76a4.67 4.67 0 0 1 4.25 4.63c0 79.3.06 73.32-.13 77a93.94 93.94 0 0 1-28.31 62.64c-58.8 57.32-156.9 16.67-159.85-63.74-.14-3.54-.08-44.61-.08-44.5a30.27 30.27 0 0 1 34.67-29.92c28.78 4.16 70.8 2.54 107.47-28.8a7.78 7.78 0 0 1 11.89 2.16c4.54 8.18 13.57 18.93 30.1 20.53z" fill="#edae6b"/><path d="M142.88 197.3c-.12-3.05-.1-58.69-.08-74.4a30.24 30.24 0 0 0-25.77 29.9c0-.13-.06 40.95.08 44.5 2.18 59.28 56.08 96.94 107.81 89.66-42.47-5.87-80.23-40.26-82.04-89.67z" fill="#dd9a5e"/></svg>