<svg xmlns="http://www.w3.org/2000/svg" viewBox="0 0 512 512"><path d="M246.47 322.03l-56.5-56.5L429.96 25.56l56.5 56.5-239.99 239.98z" fill="#9a4c00"/><path fill="#703700" d="M246.47 322.03l-28.25-28.25L458.2 53.79l28.25 28.25z"/><path d="M84.86 511.96a84.6 84.6 0 0 1-60-24.81c-33.1-33.1-33.1-86.93 0-120.02l72.7-72.7 10.61 10.6a14.96 14.96 0 0 0 21.13 0 14.96 14.96 0 0 0 0-21.13l-10.6-10.6 60.73-60.73 120.01 120-60.73 60.74-10.61-10.6c-2.82-2.83-6.57-4.38-10.56-4.38s-7.75 1.55-10.57 4.37c-2.82 2.82-4.37 6.58-4.37 10.57s1.55 7.74 4.37 10.56l10.6 10.6-72.7 72.71a84.6 84.6 0 0 1-60 24.82z" fill="#ffdb2d"/><path d="M202.6 393.27c0-4 1.55-7.75 4.37-10.57a14.84 14.84 0 0 1 10.57-4.37c3.99 0 7.74 1.55 10.56 4.37l10.6 10.6 60.74-60.72-60-60.01L24.85 487.15a84.6 84.6 0 0 0 60 24.81 84.6 84.6 0 0 0 60-24.82l72.72-72.7-10.6-10.61a14.84 14.84 0 0 1-4.38-10.56z" fill="#ff9a00"/><path d="M86.98 464.96a39.81 39.81 0 0 1-28.25-11.68 39.69 39.69 0 0 1-11.7-28.26c0-10.67 4.16-20.7 11.7-28.25l49.42-49.41 56.5 56.5-49.43 49.42a39.82 39.82 0 0 1-28.24 11.68z" fill="#9a4c00"/><path d="M475.83 113.85l-77.67-77.67L434.34 0h54.76L512 22.9v54.78l-36.17 36.17z" fill="#ffdb2d"/><path d="M136.4 375.6l-77.67 77.67a39.81 39.81 0 0 0 28.25 11.69c10.23 0 20.46-3.9 28.24-11.68l49.43-49.43-28.25-28.25z" fill="#703700"/><path fill="#ff9a00" d="M512 77.68V22.9l-11.45-11.44L437 75l38.83 38.84z"/><path d="M347.92 432.78l-268.7-268.7 84.86-84.86 268.7 268.7-84.86 84.86z" fill="#a17852"/><path fill="#b38a65" d="M432.77 347.92l-42.43 42.43-268.7-268.7 42.43-42.43z"/><g fill="#ff3200"><path d="M326.71 347.92L164.08 185.29l21.21-21.22 162.64 162.64zM95 190c-52.38 0-95-42.62-95-95 0-13.15 2.65-25.9 7.9-37.92l8.79-20.18 41.38 41.38 21.22-21.2-41.31-41.31 20.76-8.59A94.46 94.46 0 0 1 95 0c52.38 0 95 42.62 95 95s-42.62 95-95 95zM417 512c-52.38 0-95-42.62-95-95s42.62-95 95-95 95 42.62 95 95a94.42 94.42 0 0 1-7.52 37.1l-8.7 20.47-40.85-40.85-21.21 21.2 40.85 40.86-20.47 8.7A94.4 94.4 0 0 1 417 512z"/></g><g fill="#ff4f19"><path d="M417 322a94.7 94.7 0 0 0-67.14 27.86l94.46 94.46 10.6-10.6 40.86 40.85 8.7-20.47A94.4 94.4 0 0 0 512 417c0-52.38-42.62-95-95-95zM347.92 326.71l-10.6 10.6-162.64-162.63 10.6-10.6zM95 0a94.46 94.46 0 0 0-36.26 7.18l-20.76 8.59 41.3 41.3-11.1 11.1 93.96 93.97A94.7 94.7 0 0 0 190 95c0-52.38-42.62-95-95-95z"/></g></svg>