<svg xmlns="http://www.w3.org/2000/svg" viewBox="0 0 720 360">
  <g stroke="currentColor" stroke-linecap="round" stroke-linejoin="round" stroke-width="0.454192" class="BTC">
    <g class="CG__OTH">
      <path d="M400.315 155.1L399.509 154.981L398.028 153.21L395.4 150.018L395.275 148.652L394.388 147.555L393.449 146.396L392.138 145.786L391.665 145.568L388.583 142.08" class="Vector"/>
      <path d="M421.591 97.5564L421.13 99.3818" class="Kheam Hock Road"/>
      <path d="M419.484 106.306L419.39 106.601L418.566 110.147L417.635 114.151L417.397 114.935" class="Cluny Road"/>
      <path d="M420.261 103.774 419.755 105.159M421.129 99.3816 420.262 103.774" class="Kheam Hock Road"/>
      <path d="M400.31 136.014 400.86 136.218 402.57 137.148 404.103 138.356 405.491 140.07 406.523 142.407 406.733 143.84M400.026 129.76 399.467 130.613 398.19 134.463 398.082 134.79" class="Vector"/>
      <path d="M419.755 105.16 419.54 106.091 419.484 106.306M408.186 124.989 404.67 126.61 402.394 128.021 400.689 129.169 400.026 129.76" class="Cluny Road"/>
      <path d="M401.186 152.835 401.026 153.875 400.731 154.644 400.315 155.1M406.733 143.84 406.43 145.675 405.426 146.851" class="Vector"/>
      <path d="M414.673 120.133 414.042 120.901 413.44 121.464 412.44 122.399 408.186 124.989M417.398 114.935 417.18 115.658 416.847 116.519 416.569 117.153 415.116 119.513 414.673 120.133" class="Cluny Road"/>
      <path d="M398.082 134.79 400.31 136.014M404.962 147.081 404.102 147.189 402.69 147.967 401.868 148.788 401.658 149.779 401.186 152.835" class="Vector"/>
      <path d="M375.219 89.6107 375.863 89.7572 376.202 89.9179M415.668 96.0216 417.459 96.5243 418.841 96.8385 420.044 97.2501M411.292 94.8386 413.036 95.3036M365.554 88.8676 368.761 89.2053 375.219 89.6106M420.044 97.25 421.59 97.5572M413.036 95.3037 415.669 96.0216M408.671 94.1128 411.292 94.8386M406.84 93.7327 408.671 94.1128M376.203 89.917 386.007 91.4031 391.709 91.8885 401.658 93.0588 404.332 93.3321 406.84 93.7327" class="Dunearn Road"/>
    </g>
    <g class="OTH__BG-MRT">
      <path d="M388.582 142.08 387.684 141.064 387.818 139.818M387.818 139.818 388.57 139.73 390.881 139.78 393.052 139.89 395.023 138.847 396.012 137.746M397.351 134.383 398.601 130.173 398.931 129.458" class="Vector"/>
      <path d="M407.386 123.999 410.609 122.103 411.956 121.049 412.578 120.554 413.283 119.902 413.693 119.407M398.931 129.458 400.426 127.948 404.289 125.6 407.386 123.999M416.414 114.61 416.705 113.806 418.03 109.204M413.693 119.408 414.082 118.922 415.326 116.922 416.211 115.048 416.415 114.61" class="Cluny Road"/>
      <path d="M396.012 137.746 396.531 136.914 397.163 134.842M397.165 134.841 397.351 134.383" class="Vector"/>
      <path d="M372.726 97.396 369.956 97.9568 363.634 97.5766M413.597 103.719 407.069 101.694 401.84 100.822 384.287 98.7233 377.719 97.8876M375.334 97.6701 372.726 97.396" class="Bukit Timah Road"/>
      <path d="M418.03 109.204L417.725 106.897L417.232 105.939L416.306 104.386" class="Vector"/>
      <path d="M416.306 104.387 413.597 103.719M377.719 97.8883 375.333 97.6693" class="Bukit Timah Road"/>
    </g>
    <g class="BG-MRT__CG">
      <path d="M363.634 97.5766 358.505 97.4007 351.683 96.9027M319.52 92.3974 317.204 92.08 314.82 91.7517" class="Bukit Timah Road"/>
      <path d="M317.695 78.22 321.95 79.1342M321.95 79.1343 329.503 82.4457" class="Dunearn Road"/>
      <path d="M332.832 83.8123L334.166 84.2835L336.564 85.2292" class="Dunearn Close"/>
      <path d="M314.82 91.7518 315.303 89.5305M315.304 89.5303 315.881 86.2786M315.882 86.2786 317.078 81.1307" class="Adam Road"/>
      <path d="M323.684 93.709 319.519 92.3973M336.228 95.5548 327.452 94.2635M339.243 95.9837 337.746 95.7355 336.228 95.5548M327.453 94.2636 323.683 93.7091" class="Bukit Timah Road"/>
      <path d="M343.899 86.5676L349.945 87.5133L351.617 87.7741" class="Vector"/>
      <path d="M351.617 87.774 356.977 88.3333 357.911 88.3914M336.564 85.2294 340.091 85.9017M340.091 85.9016 343.9 86.5677" class="Dunearn Road"/>
      <path d="M317.078 81.1309L317.695 78.22" class="Adam Road"/>
      <path d="M344.389 96.5414 339.243 95.9838M351.683 96.9028 344.389 96.5415" class="Bukit Timah Road"/>
      <path d="M329.503 82.4457L332.833 83.8124" class="Dunearn Road"/>
      <path d="M357.911 88.3916L365.554 88.8676" class="Vector"/>
    </g>
    <g class="PGP__CG">
      <path d="M317.695 78.22 321.95 79.1342M321.95 79.1343 329.503 82.4457" class="Dunearn Road"/>
      <path d="M332.832 83.8123L334.166 84.2835L336.564 85.2292" class="Dunearn Close"/>
      <path d="M314.82 91.7518 315.303 89.5305M315.304 89.5305 315.881 86.2787M315.882 86.2788 317.078 81.131" class="Adam Road"/>
      <path d="M313.181 99.1428L313.848 96.1251L314.344 93.8504L314.82 91.7517" class="Farrer Road"/>
      <path d="M291.615 133.253L291.806 133.079L292.706 132.1L297.574 126.806L306.813 116.151L309.266 112.594L310.872 108.901L312.421 102.756" class="Tan Kim Cheng Road"/>
      <path d="M343.899 86.5676L349.945 87.5133L351.617 87.7741" class="Vector"/>
      <path d="M351.617 87.774 356.977 88.3333 357.911 88.3914M336.564 85.2294 340.091 85.9017M340.091 85.9016 343.899 86.5677" class="Dunearn Road"/>
      <path d="M317.078 81.1309L317.695 78.22" class="Adam Road"/>
      <path d="M312.421 102.756L313.18 99.1428" class="Farrer Road"/>
      <path d="M329.503 82.4457L332.833 83.8124" class="Dunearn Road"/>
      <path d="M357.911 88.3916L365.554 88.8676" class="Vector"/>
    </g>
    <g class="BG-MRT__KR-MRT">
      <path d="M363.634 97.5767L358.505 97.4008L351.683 96.9028" class="Bukit Timah Road"/>
      <path d="M323.683 93.7091L320.431 95.3318L318.507 99.3706" class="Vector"/>
      <path d="M315.971 110.917L315.074 112.849L314.219 114.483" class="Farrer Road"/>
      <path d="M336.227 95.555 327.452 94.2637M339.243 95.9837 337.746 95.7355 336.227 95.5548M327.453 94.2636 323.683 93.7091M344.389 96.5416 339.243 95.9839M351.683 96.9028 344.389 96.5415" class="Bukit Timah Road"/>
      <path d="M318.507 99.3706 317.818 103.507M317.693 104.555 317.489 105.414 316.932 108.207 315.971 110.917" class="Farrer Road"/>
      <path d="M317.818 103.507L317.694 104.555" class="Cluny Park Road"/>
      <path d="M314.219 114.483L313.019 116.255L309.903 119.954L304.173 126.575L298.738 132.82L296.038 135.162" class="Farrer Road"/>
    </g>
  </g>
</svg>
