<svg xmlns="http://www.w3.org/2000/svg" viewBox="0 0 1172 177">
  <g fill="#FF5138" fill-rule="evenodd">
    <path d="M1021.91 85.44a14.56 14.56 0 0 1 0 3.17c-.75 42.77-31.44 74.9-72.12 75.38a14 14 0 0 0-.87 0h-56.45c-8 0-14.47-6.44-14.47-14.39V24.4c0-7.96 6.47-14.4 14.47-14.4h56.99a13.13 13.13 0 0 1 .39 0 14.58 14.58 0 0 1-.02 0c40.68.5 71.36 32.65 72.08 75.44zm-28.93.26c-.55-27-18.57-46.54-43.37-46.92h-42.68v96.43h42.21c25.03-.14 43.27-19.73 43.84-46.89a14.58 14.58 0 0 1 0-2.62zm-42.68 78.31h-1.42a168.59 168.59 0 0 0 1.42 0zM520.18 15.54a14.6 14.6 0 0 0-.03-.04l.05.06.03.04.06.08.08.12 48.85 65.97 51.93-65.98c.2-.32.41-.63.63-.93l.13-.17c.2-.27.43-.54.65-.8a14.63 14.63 0 0 1 15.14-4.27h.02l.05.02.05.02h.02a14.46 14.46 0 0 1 5.35 3.05l.04.03.01.01a14.45 14.45 0 0 1 4.75 9.96l.01.03v126.24a14.52 14.52 0 0 1-29.06 0V67.6L580.3 116.7c.36-.48.68-.97.97-1.48l-.18.24a14.95 14.95 0 0 1-2.95 2.88 14.7 14.7 0 0 1-3.8 2 8.37 8.37 0 0 1-4.49 1.62h-.01a7.81 7.81 0 0 1-.3 0h.14a8.73 8.73 0 0 1-4.63-1.52 14.57 14.57 0 0 1-7.22-5.17l-.2-.28c-.24-.34-.46-.68-.66-1.02l-33.92-45.83v81.28c0 8.05-6.51 14.58-14.53 14.58A14.55 14.55 0 0 1 494 149.42V22.72a14.78 14.78 0 0 0 .03.53c.12-1.89.6-3.75 1.46-5.46l.02-.05c.9-1.8 2.17-3.38 3.7-4.66l.04-.04.67-.51c1.37-1 2.86-1.73 4.4-2.2h.04l.03-.01a14.57 14.57 0 0 1 10.4.81l.05.02c2.03.98 3.8 2.4 5.16 4.15l.01.02.02.03.15.2zm54.16 104.8a14.7 14.7 0 0 1-9.27.1 8.82 8.82 0 0 0 4.63 1.52 8.44 8.44 0 0 0 4.64-1.62zm5.37-2.7a19.8 19.8 0 0 0 2.53-2.54l-.31.37c-.7.78-1.43 1.5-2.22 2.16zM26.54 16.47l80.52 93.67V24.4c0-7.95 6.48-14.4 14.47-14.4 8 0 14.47 6.45 14.47 14.4v125.07a14.37 14.37 0 0 1 0 .2 14.36 14.36 0 0 1-4.72 10.27l-.04.03v.01l-.35.3c-2.38 2-5.22 3.12-8.11 3.36l-.07.01h-.08l-.07.01h-.01a14.59 14.59 0 0 1-12.05-5.05l-.07-.07a14.56 14.56 0 0 1 .18.24L28.94 63.77v85.83c0 7.95-6.49 14.4-14.47 14.4-8 0-14.47-6.45-14.47-14.4V24.4v-.18-.02-.06-.05-.01a14.42 14.42 0 0 1 4.72-10.32l.03-.03.02-.01.34-.3c2.25-1.9 4.92-3 7.64-3.32h.08a36224.12 36224.12 0 0 0 .08-.02 14.74 14.74 0 0 1 7.62 1.24h.01l.05.03a14.6 14.6 0 0 1 4.9 3.73l.07.08c.35.41.68.85.98 1.3zM291.46 118.28a14.45 14.45 0 0 1-14.48-14.13V23.38c0-7.94 6.5-14.38 14.5-14.38C299.5 9 306 15.44 306 23.38v80.77a14.52 14.52 0 0 0-.04.83c-.66 32.64-31.32 60.02-67.55 60.02-35.85 0-66.22-26.96-67.34-59.27-.02.17-.03.36-.03.58v-.38c-.1.73 0 .4 0-2.03V23.38c0-7.94 6.5-14.38 14.51-14.38s14.52 6.44 14.52 14.38v80.52a24.98 24.98 0 0 0 0 .39c.26 17.06 18.06 31.95 38.34 31.95a42.5 42.5 0 0 0 27.35-10.16c7.21-6.2 11.19-14.09 11.19-22.18 0 7.94 6.5 14.38 14.5 14.38zM397.97 34.57h-1.02c-9 0-15.56 1.65-19.16 4.87-1.1.98-4.46 3.98-4.69 13.61-.07 2.87-.29 11.6 28.24 17.7h.03c-.04-.02-.1-.02-.13-.03-.2-.04-.39-.08-.58-.1 2.38.53 3.22.81 1.24.39 17.58 3.62 30.12 8.19 39.45 14.38 16.24 10.76 19.65 24.8 19.65 34.66 0-.4-.03-.74-.08-1.01.09 2.8-.13 4.08-.13 1.26 0 12.19-4.79 23.5-13.48 31.84C440.17 159 427.02 167 404.56 167c-.8 0-1.62 0-2.45-.03h.38c.4 0 .8 0 1.18-.04-3.2-.05-4.75-.33-1.93-.26-.7-.02-1.08.03-1.76 0-23.85-1.07-41.02-10.06-54.42-18.7a14.15 14.15 0 0 1-4.18-19.79 14.55 14.55 0 0 1 12.14-6.45c2.74 0 5.5.75 7.95 2.34 10.88 7.03 23.4 13.6 41.02 14.03l5.45.24c8.48-.47 15.03-2.73 19.12-6.66 3.04-2.91 4.31-6.93 4.72-10.04-.21-4.72-2.89-15.9-35.95-22.7a2.31 2.31 0 0 1-.24-.05c.04.01.08.03.13.03.17.04-.34-.12-1.3-.42-13.04-2.85-22.74-6.46-30.5-11.35-16.84-10.64-20.08-24.79-19.83-34.8.36-14.5 5.13-25.96 14.2-34.06C367.4 10.12 380.46 6 397.14 6c2.18 0 4.42.07 6.72.21 2.8.02 4.08.32 1.07.1-.03 0 .62.85.6.85.02 0-.63-.85-.6-.85 11.73.83 24.92 5.05 40.32 12.89a14.18 14.18 0 0 1 6.21 19.25 14.64 14.64 0 0 1-19.55 6.12c-11.66-5.93-21.44-9.22-29.07-9.76h-.01.01l-4.88-.24zm34.4 86.2a.73.73 0 0 1-.12-.12l.12.13zM1108.97 34.57h-1.02c-9 0-15.56 1.65-19.16 4.87-1.1.98-4.46 3.98-4.69 13.61-.07 2.87-.29 11.6 28.24 17.7h.03c-.04-.02-.1-.02-.13-.03-.2-.04-.39-.08-.58-.1 2.38.53 3.22.81 1.24.39 17.58 3.62 30.12 8.19 39.45 14.38 16.24 10.76 19.65 24.8 19.65 34.66 0-.4-.03-.74-.08-1.01.09 2.8-.13 4.08-.13 1.26 0 12.19-4.79 23.5-13.48 31.84-7.14 6.86-20.29 14.86-42.75 14.86-.8 0-1.62 0-2.45-.03h.38c.4 0 .8 0 1.18-.04-3.2-.05-4.75-.33-1.93-.26-.7-.02-1.08.03-1.76 0-23.85-1.07-41.02-10.06-54.42-18.7a14.15 14.15 0 0 1-4.18-19.79 14.55 14.55 0 0 1 12.14-6.45c2.74 0 5.5.75 7.95 2.34 10.88 7.03 23.4 13.6 41.02 14.03l5.45.24c8.48-.47 15.03-2.73 19.12-6.66 3.04-2.91 4.31-6.93 4.72-10.04-.21-4.72-2.89-15.9-35.95-22.7a2.31 2.31 0 0 1-.24-.05c.04.01.08.03.13.03.17.04-.34-.12-1.3-.42-13.04-2.85-22.74-6.46-30.5-11.35-16.84-10.64-20.08-24.79-19.83-34.8.36-14.5 5.13-25.96 14.2-34.06C1078.4 10.12 1091.46 6 1108.14 6c2.18 0 4.42.07 6.72.21 2.8.02 4.08.32 1.07.1-.03 0 .62.85.6.85.02 0-.63-.85-.6-.85 11.73.83 24.92 5.05 40.32 12.89a14.18 14.18 0 0 1 6.21 19.25 14.64 14.64 0 0 1-19.55 6.12c-11.66-5.93-21.44-9.22-29.07-9.76h-.01.01l-4.88-.24zm34.4 86.2a.85.85 0 0 0-.12-.12c.03.05.07.09.12.13zM772.93 3.41l60 34.33A20 20 0 0 1 843 55.1v68.35a20 20 0 0 1-10.07 17.35l-60 34.33a20 20 0 0 1-19.86 0l-60-34.33A20 20 0 0 1 683 123.45V55.1a20 20 0 0 1 10.07-17.36l60-34.33a20 20 0 0 1 19.86 0zm0 32.67a20 20 0 0 0-19.86 0l-31 17.74A20 20 0 0 0 712 71.18v35.16a20 20 0 0 0 10.07 17.36l31 17.73a20 20 0 0 0 19.86 0l31-17.73A20 20 0 0 0 814 106.34V71.18a20 20 0 0 0-10.07-17.36l-31-17.74z"/>
  </g>
</svg>
