<svg version="1" xmlns="http://www.w3.org/2000/svg" width="1365.333" height="1365.333" viewBox="0 0 1024 1024"><path d="M492.4 92.7c-10.9 6.4-21.5 12.5-23.4 13.6-1.9 1-8.7 5-15 8.7-6.3 3.7-13.1 7.7-15 8.7-1.9 1.1-14.5 8.4-28 16.3s-40.9 23.8-61 35.5-50.2 29.2-67 39c-16.8 9.7-31.8 18.5-33.5 19.5-1.6.9-12.9 7.5-25 14.5-12.1 7.1-26.3 15.3-31.5 18.3-8.2 4.7-21.1 12.3-26 15.2-.8.5-6.8 3.9-13.2 7.6l-11.8 6.7v431.6l3.3 1.7c1.7.9 10 5.7 18.4 10.5 8.3 4.9 16.7 9.7 18.5 10.7 2.6 1.6 69.7 40.7 133.8 78 5.2 3 10.8 6.3 12.5 7.1 1.6.9 3.2 1.9 3.5 2.2.3.3 1 .8 1.5 1 .9.3 14.4 8.1 24.8 14.3 1.8 1 15.8 9.1 31.2 18.1 87.7 50.9 120.1 69.8 121.2 70.7 1.3 1.1 1.9.8 14.8-6.7 18.2-10.7 76.1-44.3 79.7-46.3 2-1.2 5.5-3.2 7.7-4.6 2.2-1.5 4.2-2.6 4.5-2.6.2 0 4.4-2.4 9.3-5.4 4.9-2.9 10.9-6.4 13.3-7.8 4.5-2.5 39.7-23 92.5-53.8 15.4-9 29.4-17.1 31-18 1.7-.9 4.1-2.3 5.5-3.1 2.7-1.7 38.2-22.4 44-25.7 1.9-1 7.3-4.2 12-6.9 4.7-2.8 10.1-6 12-7l19.5-11.3c8.8-5.2 16.9-9.9 18-10.5 1.1-.6 3.5-2 5.2-3.1l3.3-1.9V296.4l-6.2-3.6c-3.5-2-17.2-9.9-30.5-17.7-13.3-7.7-25.7-14.9-27.5-16-1.8-1-12.7-7.4-24.3-14.1-11.5-6.7-22.3-13-24-14-1.6-.9-11.3-6.6-21.5-12.5-10.2-6-20.2-11.8-22.2-12.9-2-1.2-12.9-7.5-24.3-14.1-11.3-6.6-22-12.8-23.8-13.9-1.8-1-19.8-11.5-40.2-23.4-20.3-11.8-38.3-22.3-40-23.2-1.6-1-17.8-10.4-35.8-20.9C544.6 99.6 529.4 91 528.9 91s-.9-.4-.9-.9-.8-1.1-1.7-1.4c-1-.3-4.5-2.1-7.9-4.1l-6-3.5-20 11.6zm27.6 48c.8.3 1.7.9 2 1.2.5.6 3.7 2.4 10 5.8 1.9 1 3.7 2 4 2.3.3.3 1.6 1.1 3 1.9 7.5 4.3 24.7 14.2 26 15 3.2 2 23.5 13.6 24.5 14 .5.2 1.2.7 1.5 1 .4.6 5.2 3.4 22 12.9 2.5 1.4 6.1 3.6 8 4.9 1.9 1.2 3.8 2.3 4.3 2.3.4 0 2 .8 3.5 1.9 2.2 1.6 50.3 29.6 63.7 37.1 2.2 1.3 5.2 3 6.7 3.9 3.3 2 13.1 7.7 17.8 10.4 1.9 1.1 4.7 2.7 6.2 3.6 7.2 4.2 40.5 23.7 42.3 24.7 2.9 1.6 12.7 7.3 14.5 8.4.8.5 4 2.3 7 4.1 3 1.7 9.6 5.5 14.5 8.4 5 2.9 14.5 8.5 21.3 12.4l12.2 7.2v375.6l-4 2.7c-2.2 1.4-4.2 2.6-4.5 2.6-.3 0-2.2 1.1-4.3 2.3-2 1.3-5.7 3.5-8.2 4.9-2.5 1.4-13.4 7.7-24.4 14.2-10.9 6.4-20 11.6-20.2 11.6-.1 0-3.8 2.2-8.1 4.8-4.3 2.6-8.5 5.1-9.3 5.5-.8.4-2.2 1.1-3 1.7-2.4 1.6-27.2 16-27.5 16-.2 0-3.2 1.7-6.6 3.8-5.3 3.2-21.8 12.8-36.4 21.2-6.2 3.5-46.1 26.8-49.5 28.9-1.9 1.1-4.4 2.5-5.5 3-1.1.5-3.7 2.1-5.8 3.5-2.1 1.4-4 2.6-4.2 2.6-.5 0-14.9 8.3-15.5 8.9-.3.3-2.5 1.7-5 3s-10.8 6.1-18.5 10.6c-7.7 4.6-15.6 9.1-17.5 10.2-4.3 2.4-14 8.1-16 9.3-8.5 5.3-27.4 16-28.2 16-.8 0-8.6-4.1-16-8.5-4.6-2.8-13.6-8-16.3-9.5-1.6-1-5.5-3.2-8.5-5-5.2-3.1-12.2-7.1-16.5-9.4-1.1-.6-3.1-1.9-4.5-2.7-2.7-1.8-43.6-25.6-51-29.7-2.5-1.4-6.2-3.6-8.2-4.9-2.1-1.2-4-2.3-4.4-2.3-.3 0-2-1-3.7-2.2-1.8-1.3-3.4-2.3-3.7-2.3-.3 0-1.8-.9-3.5-1.9-1.6-1.1-4.7-3-6.7-4.3-2.1-1.2-3.9-2.3-4.2-2.3-.2 0-5-2.7-10.5-6-5.6-3.3-10.4-6-10.8-6-.3 0-1.4-.6-2.2-1.4-.9-.8-4-2.7-6.9-4.2-2.9-1.6-6.8-3.8-8.6-4.9-1.9-1.1-6.9-4-11.1-6.5-4.3-2.5-9.8-5.7-12.4-7.2-2.5-1.6-5.5-3.2-6.6-3.8-1.1-.5-2.7-1.4-3.5-2-2.8-1.8-14.5-8.6-16-9.3-.8-.4-2.8-1.6-4.5-2.6-3-1.9-18.1-10.7-24.5-14.4-1.9-1.1-11.4-6.6-21-12.2s-19.1-11.1-21-12.2c-1.9-1.1-6.3-3.7-9.8-5.7l-6.2-3.7.2-188.1.3-188.1 30-17.5c16.5-9.6 31.4-18.2 33-19.2 1.7-.9 7.5-4.3 13-7.5s12.7-7.4 16-9.3c3.3-1.9 7.4-4.2 9-5.2 1.7-1 12.9-7.5 25-14.5s22.8-13.4 23.8-14.3c.9-.8 1.7-1.1 1.7-.7 0 .4.8.2 1.8-.6.9-.8 2.8-2 4.2-2.8 1.4-.8 6.3-3.7 11-6.4s10.5-6.1 13-7.5c2.5-1.4 5.7-3.3 7.2-4.3 1.4-1.1 2.8-1.9 3.1-1.9.3 0 5.8-3.2 12.3-7 6.4-3.9 11.8-7 12.1-7 .2 0 2.2-1.1 4.4-2.6 3.8-2.4 5.7-3.5 15.4-8.9 2.2-1.3 8.5-4.9 14-8.2 5.5-3.2 10.7-6.2 11.5-6.6.8-.4 3.3-1.8 5.5-3.2 2.2-1.4 5.8-3.5 8-4.6 2.2-1.2 4.2-2.4 4.5-2.8.3-.3 2.3-1.5 4.5-2.7 3.5-1.8 20.9-11.9 33.5-19.4 4.5-2.7 4.5-2.7 7.5-.8 1.7 1 3.7 2.1 4.5 2.5z"/><path d="M339.7 331.6c-12.9 3.3-23 13.7-25.3 25.9-.4 2.2-.7 75-.7 162 .1 118.7.4 158.7 1.3 161 6.1 15.7 26.6 20 38.4 8.1 7.7-7.7 7.2 4 7.2-160.3-.1-81-.1-147.3 0-147.3s1.8 4.2 3.8 9.2c2.1 5.1 4.8 11.8 6.1 14.8 1.3 3 5.5 13.6 9.5 23.5 3.9 9.9 7.8 19.3 8.5 21 .8 1.6 2.8 6.6 4.5 11 1.7 4.4 3.5 8.9 4 10 .5 1.1 7.9 19.5 16.6 41 8.6 21.4 22.4 55.6 30.6 76 8.3 20.3 15.8 39 16.8 41.5 8.2 21.1 18.6 46.3 20.6 49.7 7 12.2 22.6 18.8 37.7 16.1 13.3-2.5 22.1-10.9 28.5-27.4 1-2.7 7.1-17.7 13.5-33.4 6.3-15.7 14.5-35.9 18.1-45 3.7-9.1 7.1-17.4 7.6-18.5.5-1.1 5.5-13.5 11.1-27.5s10.9-27.3 11.9-29.5c1-2.2 3.4-8.3 5.5-13.5 4.8-12.2 5.2-13.3 5.5-14.5.2-.6 1.4-3.3 2.6-6.2 1.3-2.9 7.8-18.8 14.4-35.5 6.7-16.7 12.5-31.2 13-32.3.5-1.1 3-7 5.4-13 2.5-6.1 5.1-12.5 5.9-14.3 1.2-2.9 1.4 16.6 1.4 144.5 0 115 .2 148.6 1.2 151.5 1.6 4.8 9 12.3 13.6 13.8 12.1 4 24.1-.6 29.8-11.5l2.1-4 .1-158.5c.1-127.6-.1-159.5-1.2-163.7-2.7-11.1-10.8-20.1-21.3-23.8-4.7-1.7-29-2.4-35-1-9 1.9-18.7 9.6-22.7 17.7-1.2 2.4-15.7 38.3-32.3 79.8-16.6 41.5-30.8 76.8-31.5 78.5-.7 1.6-8.2 20.3-16.6 41.5-8.4 21.2-15.9 39.6-16.6 41-.7 1.4-1.3 3.2-1.3 4.1 0 .9-.3 1.8-.6 2.2-.3.3-4.8 11.1-9.9 23.9-8.2 20.6-9.4 23-10.3 20.8-4.8-12.2-7.7-19.1-9.3-22.7-1-2.3-1.9-4.5-1.9-4.9 0-.6-18-45.6-21.5-53.9-.7-1.7-6.1-15.2-12-30-5.9-14.9-11.3-28.4-12-30-.8-1.7-2-4.8-2.8-7-1.3-3.7-35.8-89.7-44.7-111.5-2.1-5.2-5.5-13.8-7.6-19-2-5.2-4.5-11.1-5.4-13-3.5-6.8-12.4-14.3-20-16.8-4.7-1.6-29-2-34.3-.6z"/></svg>