<svg viewBox="0 0 512 512" xmlns="http://www.w3.org/2000/svg"><circle cx="256" cy="256" r="256" fill="#8DD9FF"/><path d="M153.42 21.44A145.15 145.15 0 0 0 134 94c0 80.63 65.37 146 146 146s146-65.37 146-146c0-11.23-1.39-22.12-3.79-32.62A254.91 254.91 0 0 0 256 0c-36.49 0-71.16 7.68-102.58 21.44z" fill="#FFFFF4" opacity=".3"/><circle cx="280" cy="94" r="68.64" fill="#FFFFF4" opacity=".4"/><path d="M348.08 306.42c0-12.22-9.9-22.13-22.13-22.13a22 22 0 0 0-5.32.72 31.43 31.43 0 0 0-23.14-10.2 31.61 31.61 0 0 0-31.61 31.6h82.2z" fill="#fff" opacity=".6"/><path d="M171.32 306.42a30.25 30.25 0 0 0-30.25-30.25c-2.52 0-4.93.4-7.27.98a42.96 42.96 0 0 0-31.62-13.94 43.21 43.21 0 0 0-43.2 43.21h112.34zM273.09 291.75c-1.54 0-3 .3-4.39.74a24.4 24.4 0 0 0-40.11 0 14.5 14.5 0 0 0-4.39-.74c-8.1 0-14.67 6.57-14.67 14.67h78.23c0-8.1-6.57-14.67-14.67-14.67zM435.17 294.61c-1.24 0-2.41.24-3.53.6a19.64 19.64 0 0 0-32.3 0c-1.12-.36-2.3-.6-3.53-.6a11.8 11.8 0 0 0-11.81 11.8h62.98a11.8 11.8 0 0 0-11.81-11.8z" fill="#fff"/><path d="M489.45 291.93c-1.52 0-2.96.3-4.33.73a24.1 24.1 0 0 0-39.63 0 14.33 14.33 0 0 0-4.33-.73c-8 0-14.49 6.49-14.49 14.49h77.27c0-8-6.49-14.49-14.49-14.49z" fill="#fff" opacity=".6"/><path d="M503.94 320H46.67L88 416s118.14 69.33 152.4 77.33c14.1 3.3 38.77 8.84 62.95 14.23 97.8-18.3 176.02-92.13 200.58-187.56z" fill="#57B9E7" opacity=".2"/><path d="M474.78 388.99c-45.2-18.25-126.88-30.45-220.29-30.45-79.07 0-149.79 8.74-197.07 22.48l12.97 29.64s87.83 50.67 139.78 73.36c14.41.61 29.2.95 44.32.95 48.49 0 93.77-3.31 132.5-9.02a257.27 257.27 0 0 0 87.8-86.96z" fill="#B3F4EF"/><path d="M465.15 403.56H132.19V427h314.27a256.77 256.77 0 0 0 18.68-23.44z" fill="#fff"/><path d="M450.94 421.75H132.2S196.49 465 197.25 465c.49 0 96.3 8.35 163.94 14.25 8.86-1 17.51-2.08 25.8-3.3a257.42 257.42 0 0 0 63.95-54.2z" fill="#FFF8DB"/><path d="M256 333c89.83 0 171.65 10.79 233.16 28.47A253.38 253.38 0 0 0 503.93 320H46.67l13.8 32.08C116.12 340.05 183.44 333 256 333z" fill="#57B9E7"/><path d="M47.72 324a8 8 0 0 1-3.47-15.21c34.97-16.8 76.66-53.53 76.66-133.11a8 8 0 1 1 16 0c0 87.9-46.63 128.74-85.74 147.53-1.11.53-2.3.79-3.45.79z" fill="#8C665B"/><path d="M132.05 168.18s-48.21-1.26-49.9 48.19c0 0 5.48-4.44 7.4-8.57 0 0 1.23 2.5.35 5.12 0 0 4.51-4.38 5.7-9.23 0 0 .8 1.8 0 4.43 0 0 4.72-3.87 6.02-6.96 0 0 .76 1.4-.3 3.33 0 0 4.46-3.89 5.58-9.41 0 0 1.36 1.26 1.01 4.16 0 0 5.34-6.33 5.9-9.97 0 0 1.82.76.78 3.5 0 0 13.09-9.72 17.46-24.59z" fill="#43AB5F"/><path d="M132.05 168.18s40.84 25.66 14.85 67.75c0 0-2.1-6.71-1.4-11.22 0 0-2.42 1.4-3.14 4.07 0 0-1.33-6.15.38-10.85 0 0-1.69 1.06-2.47 3.69 0 0-1.78-5.83-1.15-9.12 0 0-1.4.73-1.6 2.93 0 0-1.56-5.7.57-10.92 0 0-1.83.3-3.15 2.9 0 0-.94-8.23.62-11.57 0 0-1.94-.37-2.6 2.49 0 0-5.5-15.35-.91-30.15z" fill="#43AB5F"/><path d="M132.05 168.18s4.96-50.13-43.05-55.02c0 0 3.9 5.98 7.77 8.24 0 0-2.53 1.13-5.01.05 0 0 3.91 4.97 8.55 6.5 0 0-1.83.74-4.32-.25 0 0 3.4 5.14 6.3 6.7 0 0-1.4.7-3.2-.53 0 0 3.43 4.9 8.73 6.4 0 0-1.34 1.35-4.14.8 0 0 5.75 5.96 9.26 6.77 0 0-.89 1.85-3.48.6 0 0 8.46 14.24 22.59 19.74z" fill="#52C883"/><path d="M132.05 168.18s-36.12-40.8-78.65-3.77c0 0 7.91 1.07 12.84-.56 0 0-1.14 2.97-4 4.28 0 0 7.13.32 12.1-2.48 0 0-.89 2.08-3.7 3.46 0 0 6.86.88 10.44-.45 0 0-.57 1.72-3 2.34 0 0 6.68.67 12.15-2.7 0 0 0 2.1-2.7 4.07 0 0 9.4-.5 12.87-2.88 0 0 .77 2.1-2.32 3.37 0 0 18.2 3.25 33.97-4.68zM132.05 168.18s52.67-13.96 67.57 40.42c0 0-7.18-3.48-10.38-7.57 0 0-.7 3.1.96 5.77 0 0-6.11-3.68-8.7-8.75 0 0-.41 2.22 1.16 4.91 0 0-6.2-3.06-8.44-6.14 0 0-.48 1.74 1.2 3.6 0 0-5.93-3.14-8.62-8.98 0 0-1.16 1.76-.01 4.89 0 0-7.54-5.63-9.12-9.53 0 0-1.8 1.32.07 4.1 0 0-16.96-7.38-25.69-22.72z" fill="#34BE69"/><path d="M132.05 168.18s9.6-53.63 65.2-44.16c0 0-6.2 5.04-11.26 6.2 0 0 2.52 1.95 5.64 1.58 0 0-5.92 3.98-11.61 4.18 0 0 1.83 1.32 4.94 1.03 0 0-5.39 4.33-9.14 5.06 0 0 1.38 1.16 3.78.43 0 0-5.35 4.05-11.78 4.01 0 0 1.1 1.8 4.42 2.08 0 0-8.29 4.46-12.48 4.24 0 0 .43 2.19 3.74 1.66 0 0-13.85 12.26-31.45 13.69z" fill="#52C883"/><path d="M103.06 409.75v-16.23c25.73 0 87.1-67.74 88.72-97.95l16.21.87c-2.12 39.19-70.76 113.31-104.93 113.31z" fill="#8C665B"/><circle cx="280" cy="94" r="26.98" fill="#fff"/><path d="M207.6 432c-19.82-16-41.12-.67-52.86-24-6.93-13.76-37.87-4.4-52.87-16-19.82-15.33-16.79-35.08-26.43-56-12.39-26.88-43.5-45.55-73.35-47.77C17.95 414.38 125.54 512 256 512c64.9 0 124.13-24.2 169.25-64h-173.6c-21.29 0-32.3-6.53-44.05-16z" fill="#8C665B"/><path d="M202.22 298.43s-52.8-6.24-59.62 47.88c0 0 6.45-4.32 8.97-8.67 0 0 1.1 2.88-.12 5.66 0 0 5.39-4.35 7.18-9.56 0 0 .71 2.07-.43 4.87 0 0 5.56-3.78 7.3-7.04 0 0 .7 1.6-.67 3.62 0 0 5.3-3.81 7.07-9.77 0 0 1.37 1.53.7 4.68 0 0 6.5-6.42 7.47-10.36 0 0 1.93 1.02.5 3.93 0 0 15.35-9.36 21.65-25.24z" fill="#43AB5F"/><path d="M202.22 298.43s42.25 32.27 9.48 75.87c0 0-1.62-7.59-.4-12.46 0 0-2.8 1.3-3.86 4.15 0 0-.84-6.88 1.5-11.87 0 0-1.95 1-3.08 3.8 0 0-1.36-6.58-.34-10.13 0 0-1.62.66-2.04 3.06 0 0-1.15-6.42 1.72-11.94 0 0-2.05.14-3.75 2.87 0 0-.2-9.13 1.84-12.63 0 0-2.1-.61-3.1 2.47 0 0-4.5-17.4 2.03-33.19z" fill="#43AB5F"/><path d="M202.22 298.43s10.5-54.53-41.72-64.72c0 0 3.67 6.95 7.7 9.81 0 0-2.9.99-5.5-.44 0 0 3.79 5.85 8.72 8 0 0-2.08.63-4.71-.72 0 0 3.21 6 6.25 7.99 0 0-1.62.63-3.47-.9 0 0 3.27 5.72 8.93 7.91 0 0-1.6 1.34-4.61.46 0 0 5.71 7.12 9.47 8.36 0 0-1.15 1.94-3.87.3 0 0 7.85 16.49 22.81 23.95z" fill="#52C883"/><path d="M202.22 298.43s-35.55-48.42-85.96-12.05c0 0 8.58 1.97 14.15.67 0 0-1.55 3.15-4.82 4.3 0 0 7.8 1.07 13.52-1.5 0 0-1.17 2.2-4.39 3.42 0 0 7.44 1.66 11.5.57 0 0-.8 1.82-3.53 2.26 0 0 7.27 1.4 13.61-1.75 0 0-.21 2.32-3.37 4.2 0 0 10.37.39 14.42-1.86 0 0 .63 2.38-2.9 3.46 0 0 19.66 5.4 37.77-1.72zM202.22 298.43s59.22-10.02 70.1 51.17c0 0-7.52-4.55-10.62-9.36 0 0-1.08 3.34.47 6.44 0 0-6.34-4.66-8.67-10.49 0 0-.68 2.4.77 5.52 0 0-6.5-3.99-8.64-7.6 0 0-.7 1.86.96 4.08 0 0-6.2-4.05-8.56-10.73 0 0-1.46 1.81-.5 5.36 0 0-7.72-6.94-9.06-11.37 0 0-2.1 1.27-.33 4.5 0 0-17.88-9.8-25.92-27.52z" fill="#34BE69"/><path d="M202.22 298.43s15.94-57.91 76-41.91c0 0-7.3 4.9-12.97 5.68 0 0 2.57 2.38 6.03 2.29 0 0-6.9 3.78-13.16 3.42 0 0 1.88 1.63 5.32 1.63 0 0-6.36 4.2-10.54 4.63 0 0 1.4 1.42 4.1.85 0 0-6.28 3.91-13.33 3.23 0 0 1.02 2.08 4.64 2.72 0 0-9.55 4.06-14.13 3.4 0 0 .25 2.45 3.93 2.2 0 0-16.43 12.06-35.89 11.86z" fill="#52C883"/><path d="M398.26 216h-16c0 84.38 26.15 147.25 79.72 191.99 3.18-4.3 6.2-8.73 9.1-13.23-48.93-41.5-72.82-100.06-72.82-178.76z" fill="#8C665B"/><path d="M388.38 213.66s-58.42 24.65-33.6 84.77c0 0 4.15-8.28 4.2-14.27 0 0 2.84 2.33 3.2 5.94 0 0 3.03-7.7 1.81-14.15 0 0 1.96 1.73 2.42 5.3 0 0 3.54-7.18 3.42-11.59 0 0 1.67 1.25 1.45 4.15 0 0 3.24-7.08 1.57-14.3 0 0 2.32.77 3.48 4.44 0 0 2.96-10.48 1.65-15.15 0 0 2.6-.07 2.83 3.78 0 0 10.4-18.75 7.57-38.92z" fill="#43AB5F"/><path d="M388.38 213.66s62.82 8.56 54.54 73.08c0 0-6.16-6.91-7.77-12.68 0 0-2.13 2.99-1.55 6.57 0 0-4.92-6.64-5.43-13.2 0 0-1.44 2.19-.96 5.76 0 0-5.29-6.02-6.32-10.3 0 0-1.29 1.64-.31 4.38 0 0-4.98-5.99-5.26-13.4 0 0-2.03 1.36-2.19 5.2 0 0-5.6-9.35-5.54-14.2 0 0-2.53.61-1.76 4.4 0 0-14.92-15.4-17.45-35.61z" fill="#43AB5F"/><path d="M388.38 213.66s-21.26-62.72-81.4-42.52c0 0 7.9 5.04 13.78 5.64 0 0-2.42 2.73-5.98 2.78 0 0 7.39 3.83 13.77 3.16 0 0-1.79 1.87-5.31 2.03 0 0 6.86 4.32 11.19 4.6 0 0-1.3 1.6-4.13 1.11 0 0 6.76 4 13.93 2.94 0 0-.87 2.33-4.52 3.19 0 0 10.12 4.02 14.75 3.09 0 0-.05 2.7-3.84 2.6 0 0 17.85 12.46 37.76 11.38z" fill="#52C883"/><path d="M388.38 213.66s-65.38-29.25-96.22 38.16c0 0 10.05-3.01 15.07-7.64 0 0 .25 4.17-2.47 7.29 0 0 8.72-3.49 13.14-9.52 0 0 .07 2.97-2.54 6.13 0 0 8.69-2.66 12.25-6.19 0 0 .25 2.36-2.33 4.43 0 0 8.37-2.82 13.09-9.83 0 0 1.14 2.53-1.01 6.34 0 0 10.97-5.7 13.84-10.43 0 0 2.06 2.1-.96 5.3 0 0 23.56-5.98 38.14-24.04zM388.38 213.66s55.5-45.29 102.84 11.74c0 0-10.5-.28-16.54-3.44 0 0 .85 4.1 4.28 6.4 0 0-9.32-1.1-15.16-5.77 0 0 .7 2.89 4.05 5.26 0 0-9.08-.3-13.45-2.78 0 0 .38 2.34 3.4 3.67 0 0-8.8-.54-15.19-6.08 0 0-.44 2.74 2.63 5.86 0 0-12.08-2.65-16.08-6.46 0 0-1.44 2.56 2.3 4.86 0 0-24.3.37-43.08-13.26z" fill="#34BE69"/><path d="M388.38 213.66s-17.6-69.44 54.1-88.24c0 0-4.68 9.39-10.1 13.53 0 0 4.07.96 7.6-1.17 0 0-4.93 7.98-11.63 11.3 0 0 2.9.58 6.48-1.45 0 0-4.11 8.1-8.2 11.01 0 0 2.27.65 4.76-1.53 0 0-4.22 7.75-11.93 11.2 0 0 2.29 1.56 6.41.09 0 0-7.5 9.84-12.64 11.85 0 0 1.7 2.38 5.38-.04 0 0-9.94 22.19-30.23 33.45z" fill="#52C883"/><path d="M64.52 361.47c-14.17-28.67-32.48-27.64-52.89-29.34C44.05 436.33 141.14 512 256 512c50.21 0 96.99-14.53 136.5-39.52-12.8-1.86-27.17-5.81-52.23 4.95-12.54 5.38-30.02-18-41.6-19.43-32.57-4-68 21.25-89.14 4-27.1-22.12-38.53-2-60.32-11.5-21.8-9.5-10.25-27.25-19-36.72-13.94-15.11-44.88-10.22-65.69-52.3z" fill="#674447"/></svg>