<svg viewBox="0 0 504 504" xmlns="http://www.w3.org/2000/svg"><path d="M479.78 476h-375a73 73 0 0 1-73-73v-14a73 73 0 0 1 73-73h375v160z" fill="#FFEBB7"/><path fill="#5C546A" d="M47.78 332h40v128h-40z"/><path d="M441.78 292h-426V180h426a22 22 0 0 1 22 22v68a22 22 0 0 1-22 22zM71.78 36h408v120h-408z" fill="#FFEBB7"/><path d="M480 492H112c-52.93 0-96-43.06-96-96s43.07-96 96-96h368a16 16 0 0 1 0 32H112c-35.29 0-64 28.71-64 64s28.71 64 64 64h368a16 16 0 0 1 0 32z" fill="#00C37A"/><path d="M432 300H8a8 8 0 1 1 0-16h424c13.23 0 24-10.77 24-24v-48c0-13.23-10.77-24-24-24H8a8 8 0 1 1 0-16h424c22.05 0 40 17.95 40 40v48c0 22.05-17.95 40-40 40z" fill="#009BCA"/><path d="M479.78 76h-368a8 8 0 0 1 0-16h368v16zM479.78 108h-368a8 8 0 0 1 0-16h368v16zM479.78 140h-368a8 8 0 0 1 0-16h368v16zM15.78 204h416a8 8 0 0 1 0 16h-416v-16zM15.78 236h416a8 8 0 0 1 0 16h-416v-16zM15.78 268h416a8 8 0 0 1 0 16h-416v-16z" fill="#E6BE94"/><path d="M488 172H104c-26.47 0-48-21.53-48-48V60c0-26.47 21.53-48 48-48h384a16 16 0 0 1 0 32H104c-8.82 0-16 7.18-16 16v64c0 8.82 7.18 16 16 16h384a16 16 0 0 1 0 32z" fill="#FF4F19"/><path d="M111.78 444a8 8 0 1 0 0 16h368v-16h-368zM111.78 412a8 8 0 1 0 0 16h368v-16h-368zM111.78 380a8 8 0 1 0 0 16h368v-16h-368zM111.78 348a8 8 0 1 0 0 16h368v-16h-368z" fill="#E6BE94"/></svg>