<svg xmlns="http://www.w3.org/2000/svg" viewBox="0 0 512 512"><path d="M163.08 85c-46.87 0-85-38.13-85-85h30c0 30.33 24.67 55 55 55v30z" fill="#9a4c00"/><path fill="#ff4f19" d="M191.08 15h30v35h-30z"/><path fill="#ff3200" d="M251.08 15h30v35h-30z"/><g fill="#9a4c00"><path d="M96.69 190.76L59.18 147H.08v-30h72.9l46.48 54.24zM87.55 271.34L49.4 245H.08v-30h58.67l45.85 31.66zM72.97 437H.07v-30h59.1l37.52-43.76 22.78 19.52zM57.31 348H.08v-30h50.76l39.05-17.67 12.37 27.34z"/></g><g fill="#703700"><path d="M375.46 190.76l-22.77-19.52L399.18 117h72.9v30h-59.1zM384.6 271.34l-17.05-24.68L413.4 215h58.68v30h-49.33zM472.08 437h-72.9l-46.5-54.24 22.78-19.52L412.98 407h59.1zM472.08 348h-57.24l-44.95-20.33 12.37-27.34L421.3 318h50.77z"/></g><path d="M342.29 141H129.86l-48.78 48.79V306c0 78.28 62.35 142.26 140 144.9v.1h30v-.1c77.64-2.64 140-66.62 140-144.9V189.79L342.29 141z" fill="#ff4f19"/><path d="M342.29 141H236.08v310h15v-.1c77.64-2.64 140-66.62 140-144.9V189.79L342.29 141z" fill="#ff3200"/><path d="M266.08 351v30c41.35 0 75-33.65 75-75h-30c0 24.81-20.2 45-45 45z" fill="#a81300"/><path d="M511.92 512h-371.7l185.86-325.23L511.92 512z" fill="#ffdb2d"/><path fill="#ff9a00" d="M326.08 186.77V512h185.84z"/><g fill="#9a4c00"><path d="M311.08 431h30v30h-30zM311.08 311h30v90h-30z"/></g><g fill="#703700"><path d="M326.08 431h15v30h-15zM326.08 311h15v90h-15z"/></g><path d="M351.08 171h-230V93.79L179.86 35H292.3l58.79 58.79V171z" fill="#ffdb2d"/><path d="M309.08 85V55c30.32 0 55-24.67 55-55h30c0 46.87-38.13 85-85 85z" fill="#703700"/><path fill="#ff9a00" d="M351.08 93.79L292.29 35h-56.21v136h115z"/></svg>