<svg xmlns="http://www.w3.org/2000/svg" viewBox="0 0 512 512"><path d="M512 400.1l-98.38-102.2H162v-260h350v362.2z" fill="#fff5cb"/><path fill="#ffdba9" d="M337 37.9v260h76.62L512 400.1V37.9z"/><g fill="#a17852"><path d="M388 209.89h30v29h-30zM388 98.89h30v79h-30z"/></g><path d="M0 474.1V111.9h350v260H98.38L0 474.1z" fill="#ff4f19"/><path fill="#ff3200" d="M175 111.89h175v260H175z"/><g fill="#ff9a00"><path d="M274 264.9h-30v-37h15c7.17 0 13-5.84 13-13s-5.83-13-13-13-13 5.82-13 13h-30c0-23.72 19.29-43 43-43s43 19.28 43 43a43.07 43.07 0 0 1-28 40.3v9.7zM244 282.89h30v29h-30zM184 282.89h30v29h-30z"/></g><g fill="#ffdb2d"><path d="M124 282.89h30v29h-30zM64 282.89h30v29H64z"/></g></svg>