<svg height="474pt" viewBox="0 0 474 474.49905" width="474pt" xmlns="http://www.w3.org/2000/svg"><path d="m345.289062 321.796875c6.25-6.25 6.25-16.386719 0-22.632813l-169.703124-169.703124c-6.246094-6.25-16.378907-6.253907-22.628907-.007813-6.25 6.25-6.25 16.378906-.003906 22.628906l169.710937 169.714844c6.25 6.246094 16.378907 6.246094 22.625 0zm0 0" fill="#933ec5"/><path d="m322.648438 321.777344-27.277344 12.882812c-1.734375-10.003906-9.566406-17.832031-19.570313-19.558594-10.003906-1.726562-20.007812 3.027344-24.992187 11.871094-4.980469 8.84375-3.859375 19.867188 2.800781 27.527344l-33.917969 16.078125c-2.445312-5.542969-5.890625-10.585937-10.160156-14.878906-16.714844-16.855469-43.238281-18.960938-62.402344-4.957031-19.167968 14.003906-25.21875 39.914062-14.238281 60.957031l-132.640625 62.800781 33.757812-71.28125c17.609376 8.429688 38.726563 2.921875 49.972657-13.035156 11.246093-15.957032 9.328125-37.699219-4.53125-51.445313-3.269531-3.21875-7.054688-5.871093-11.199219-7.839843l39.679688-83.757813c17.539062 5.003906 36.246093-2.46875 45.503906-18.183594 9.261718-15.714843 6.734375-35.703125-6.144532-48.617187-1.703124-1.703125-3.550781-3.253906-5.519531-4.640625l11.199219-23.601563zm0 0" fill="#ed539d"/><path d="m141.640625 355.730469c-14.71875 14.785156-18.269531 37.355469-8.800781 55.945312l86.777344-41.066406c-6.3125-14.59375-19.441407-25.117187-35.0625-28.097656-15.621094-2.980469-31.703126 1.972656-42.945313 13.21875zm0 0" fill="#7ed63e"/><path d="m147.296875 236.9375c15.621094-15.621094 15.621094-40.945312 0-56.566406-1.710937-1.703125-3.566406-3.253906-5.542969-4.640625l-33.824218 71.394531c14 4 29.066406.101562 39.367187-10.1875zm0 0" fill="#ffcd00"/><path d="m233.53125 276.539062c0 13.253907-10.746094 24-24 24-13.257812 0-24-10.746093-24-24 0-13.253906 10.742188-24 24-24 13.253906 0 24 10.746094 24 24zm0 0" fill="#ff3051"/><path d="m140.671875 304.820312c0 8.835938-7.160156 16-16 16-8.835937 0-16-7.164062-16-16 0-8.835937 7.164063-16 16-16 8.839844 0 16 7.164063 16 16zm0 0" fill="#ffcd00"/><path d="m79.417969 395.332031c15.621093-15.621093 15.621093-40.949219 0-56.570312-3.230469-3.246094-7-5.90625-11.144531-7.863281l-34.28125 72.296874c15.285156 7.21875 33.457031 4.074219 45.425781-7.863281zm0 0" fill="#2488ff"/><g fill="#d54b8d"><path d="m51.425781 407.027344c1.503907-.015625 3.007813-.113282 4.503907-.289063l-5.921876 12.480469-19.359374 40.878906-30.398438 14.402344 33.757812-71.28125c1.363282.640625 2.800782 1.199219 4.160157 1.679688 4.273437 1.4375 8.75 2.15625 13.257812 2.128906zm0 0"/><path d="m128.648438 247.378906c1.089843-.246094 2.15625-.566406 3.199218-.960937l-7.917968 16.722656-39.039063 82.398437c-.480469-.71875-.960937-1.441406-1.519531-2.160156-1.171875-1.65625-2.484375-3.207031-3.921875-4.640625-3.269531-3.21875-7.054688-5.871093-11.199219-7.839843l39.679688-83.757813c4.601562 1.285156 9.398437 1.746094 14.160156 1.359375 1.121094-.082031 2.238281-.242188 3.28125-.402344 1.105468-.160156 2.203125-.402344 3.277344-.71875zm0 0"/><path d="m154.730469 190.738281c-.324219-.71875-.699219-1.414062-1.121094-2.078125-.351563-.695312-.753906-1.363281-1.199219-2-2.816406-4.300781-6.425781-8.019531-10.640625-10.960937l11.199219-23.601563 16 16-11.199219 23.601563-1.359375 2.878906c-.492187-1.308594-1.054687-2.589844-1.679687-3.839844zm0 0"/></g><path d="m156.410156 194.578125-24.5625 51.839844c-2.113281.722656-4.277344 1.285156-6.476562 1.679687-1.042969.160156-2.160156.320313-3.28125.402344-4.761719.386719-9.558594-.074219-14.160156-1.359375l33.839843-71.441406c4.214844 2.941406 7.824219 6.660156 10.640625 10.960937.472656.617188.878906 1.289063 1.199219 2 .421875.664063.796875 1.359375 1.121094 2.078125.625 1.25 1.1875 2.53125 1.679687 3.839844zm0 0" fill="#e5b800"/><path d="m84.890625 345.539062-.640625 1.359376-28.320312 59.839843c-1.519532.160157-3.039063.242188-4.480469.320313-4.515625.011718-9-.71875-13.28125-2.160156-1.359375-.480469-2.796875-1.039063-4.160157-1.679688l34.242188-72.320312c4.144531 1.96875 7.929688 4.621093 11.199219 7.839843 1.4375 1.433594 2.75 2.984375 3.921875 4.640625.558594.71875 1.039062 1.441406 1.519531 2.160156zm0 0" fill="#207ae5"/><path d="m254.777344 321.796875c-8.9375 8.894531-9.433594 23.203125-1.128906 32.695313l41.746093-19.800782c-1.523437-8.835937-7.84375-16.082031-16.390625-18.796875-8.542968-2.710937-17.886718-.4375-24.226562 5.902344zm0 0" fill="#c2fb3b"/><path d="m386.328125 48.417969c0 8.835937-7.160156 16-16 16-8.835937 0-16-7.164063-16-16 0-8.835938 7.164063-16 16-16 8.839844 0 16 7.164062 16 16zm0 0" fill="#ff3051"/><path d="m370.328125 184.417969c0 8.835937-7.160156 16-16 16-8.835937 0-16-7.164063-16-16 0-8.835938 7.164063-16 16-16 8.839844 0 16 7.164062 16 16zm0 0" fill="#ffcd00"/><path d="m226.328125 40.417969c0 8.835937-7.160156 16-16 16-8.835937 0-16-7.164063-16-16 0-8.835938 7.164063-16 16-16 8.839844 0 16 7.164062 16 16zm0 0" fill="#c2fb3b"/><path d="m380.105469 96.417969h-14.449219c-29.464844-.09375-55.988281 17.863281-66.847656 45.257812l-15.910156 39.765625c-1.644532 4.105469.351562 8.765625 4.457031 10.410156 4.101562 1.644532 8.761719-.351562 10.40625-4.457031l15.902343-39.777343c8.445313-21.308594 29.078126-35.277344 52-35.199219h14.449219c26.621094-.003907 51.0625-14.695313 63.558594-38.199219l29.859375-62.34375c1.4375-2.597656 1.316406-5.777344-.308594-8.261719-1.628906-2.484375-4.5-3.859375-7.453125-3.5781248-2.957031.2851558-5.511719 2.1796878-6.640625 4.9296878l-29.710937 62.007812c-9.757813 18.148438-28.707031 29.464844-49.3125 29.445313zm0 0" fill="#ffcd00"/><path d="m227.433594 135.132812c-.203125 4.414063 3.210937 8.15625 7.625 8.359376h.375c4.277344.003906 7.804687-3.359376 8-7.632813l1.734375-37.695313c.144531-20.605468 11.605469-39.460937 29.824219-49.082031l12.800781-6.75c12.867187-6.78125 23.363281-17.3125 30.105469-30.199219 1.367187-2.535156 1.265624-5.609374-.265626-8.050781-1.53125-2.4375-4.253906-3.867187-7.132812-3.738281-2.875.125-5.460938 1.789062-6.769531 4.355469-5.242188 10.023437-13.410157 18.214843-23.417969 23.488281l-12.800781 6.75c-23.351563 12.292969-38.074219 36.40625-38.34375 62.792969zm0 0" fill="#ff9811"/><path d="m466.328125 168.417969h-15.277344c-18.199219-.0625-34.847656 10.230469-42.929687 26.535156l-9.894532 19.777344c-5.382812 10.875-16.484374 17.734375-28.617187 17.6875h-23.28125c-4.417969 0-8 3.582031-8 8s3.582031 8 8 8h23.28125c18.199219.0625 34.847656-10.230469 42.929687-26.535157l9.894532-19.777343c5.382812-10.871094 16.484375-17.734375 28.617187-17.6875h15.277344c4.417969 0 8-3.582031 8-8s-3.582031-8-8-8zm0 0" fill="#91dc5a"/><path d="m295.984375 102.074219c3.03125-3.136719 2.988281-8.128907-.097656-11.214844-3.085938-3.085937-8.074219-3.128906-11.214844-.097656l-8 8c-2.078125 2.011719-2.910156 4.984375-2.179687 7.78125.730468 2.796875 2.917968 4.980469 5.714843 5.714843 2.796875.730469 5.769531-.101562 7.777344-2.183593zm0 0" fill="#ff3051"/><path d="m394.328125 272.417969h-16c-4.417969 0-8 3.582031-8 8s3.582031 8 8 8h16c4.417969 0 8-3.582031 8-8s-3.582031-8-8-8zm0 0" fill="#ff9811"/><path d="m436.671875 250.761719-8 8c-2.078125 2.011719-2.910156 4.984375-2.179687 7.78125.730468 2.796875 2.917968 4.980469 5.714843 5.714843 2.796875.730469 5.769531-.101562 7.777344-2.183593l8-8c3.03125-3.136719 2.988281-8.128907-.097656-11.214844-3.085938-3.085937-8.074219-3.128906-11.214844-.097656zm0 0" fill="#ffcd00"/><path d="m414.753906 137.257812-16 8c-3.953125 1.976563-5.558594 6.78125-3.585937 10.738282 1.976562 3.953125 6.78125 5.558594 10.738281 3.582031l16-8c3.953125-1.972656 5.558594-6.78125 3.582031-10.734375-1.972656-3.953125-6.78125-5.558594-10.734375-3.585938zm0 0" fill="#ff9811"/><path d="m194.328125 88.417969v8c0 4.417969 3.582031 8 8 8s8-3.582031 8-8v-8c0-4.417969-3.582031-8-8-8s-8 3.582031-8 8zm0 0" fill="#ff3051"/><path d="m308.648438 58.738281c-2.304688 2.289063-3 5.746094-1.753907 8.75 1.246094 3 4.183594 4.949219 7.433594 4.929688.507813-.011719 1.015625-.066407 1.511719-.160157.535156-.074218 1.050781-.234374 1.53125-.480468.507812-.175782.992187-.417969 1.4375-.71875.417968-.296875.820312-.617188 1.199218-.960938 3.140626-3.136718 3.140626-8.222656 0-11.359375-3.136718-3.136719-8.222656-3.136719-11.359374 0zm0 0" fill="#ffcd00"/><path d="m261.839844 15.058594c.449218.300781.9375.542968 1.449218.71875.476563.246094.992188.40625 1.519532.480468.503906.09375 1.011718.148438 1.519531.160157.507813-.011719 1.015625-.066407 1.511719-.160157.535156-.074218 1.050781-.234374 1.53125-.480468.488281-.160156.949218-.402344 1.359375-.71875.429687-.28125.828125-.601563 1.199219-.960938 2.351562-2.25 3.054687-5.730468 1.761718-8.71875-.386718-1-.988281-1.898437-1.761718-2.640625-.371094-.355469-.769532-.675781-1.199219-.960937-.410157-.3125-.871094-.558594-1.359375-.71875-.480469-.242188-.996094-.40625-1.53125-.480469-.996094-.238281-2.035156-.238281-3.03125 0-.527344.074219-1.042969.238281-1.519532.480469-.511718.175781-1 .417968-1.449218.71875l-1.191406.960937c-3.09375 3.15625-3.09375 8.207031 0 11.359375zm0 0" fill="#a25bcd"/><path d="m270.730469 145.777344c-.410157-.3125-.871094-.558594-1.359375-.71875-.480469-.242188-.996094-.40625-1.53125-.480469-.996094-.238281-2.035156-.238281-3.03125 0-.527344.074219-1.042969.238281-1.519532.480469-.511718.175781-1 .417968-1.449218.71875-.414063.300781-.8125.621094-1.191406.960937-3.09375 3.15625-3.09375 8.207031 0 11.359375l1.191406.960938c.449218.300781.9375.542968 1.449218.71875.476563.246094.992188.40625 1.519532.480468.503906.09375 1.011718.148438 1.519531.160157.507813-.011719 1.015625-.066407 1.511719-.160157.535156-.074218 1.050781-.234374 1.53125-.480468.488281-.160156.949218-.402344 1.359375-.71875.429687-.28125.828125-.601563 1.199219-.960938 1.515624-1.503906 2.375-3.542968 2.398437-5.679687-.011719-1.042969-.230469-2.078125-.636719-3.039063-.386718-1-.988281-1.898437-1.761718-2.640625-.371094-.355469-.769532-.675781-1.199219-.960937zm0 0" fill="#2488ff"/><path d="m452.648438 122.738281c-.703126.777344-1.273438 1.671875-1.679688 2.640625-.851562 1.9375-.851562 4.144532 0 6.082032.40625.96875.976562 1.859374 1.679688 2.636718 1.523437 1.476563 3.558593 2.308594 5.679687 2.320313 2.121094-.03125 4.148437-.859375 5.679687-2.320313.707032-.777344 1.277344-1.667968 1.683594-2.636718.851563-1.9375.851563-4.144532 0-6.082032-.40625-.96875-.976562-1.863281-1.683594-2.640625-3.207031-2.960937-8.148437-2.960937-11.359374 0zm0 0" fill="#57a4ff"/><path d="m418.328125 24.417969c2.128906.023437 4.175781-.8125 5.683594-2.316407 1.503906-1.507812 2.339843-3.554687 2.316406-5.683593-.03125-2.117188-.859375-4.144531-2.320313-5.679688-3.207031-2.960937-8.148437-2.960937-11.359374 0-3.09375 3.15625-3.09375 8.207031 0 11.359375 1.535156 1.464844 3.5625 2.292969 5.679687 2.320313zm0 0" fill="#b2fa09"/><path d="m308.648438 202.738281c-2.304688 2.289063-3 5.746094-1.753907 8.75 1.246094 3 4.183594 4.949219 7.433594 4.929688.507813-.011719 1.015625-.066407 1.511719-.160157.535156-.074218 1.050781-.234374 1.53125-.480468.507812-.175782.992187-.417969 1.4375-.71875l1.199218-.960938c3.140626-3.136718 3.140626-8.222656 0-11.359375-3.136718-3.136719-8.222656-3.136719-11.359374 0zm0 0" fill="#ff3051"/><path d="m464.007812 210.738281c-3.207031-2.960937-8.148437-2.960937-11.359374 0-.703126.777344-1.273438 1.671875-1.679688 2.640625-.851562 1.9375-.851562 4.144532 0 6.082032.40625.96875.976562 1.859374 1.679688 2.636718 1.523437 1.476563 3.558593 2.308594 5.679687 2.320313 2.121094-.03125 4.148437-.859375 5.679687-2.320313.707032-.777344 1.277344-1.667968 1.683594-2.636718.851563-1.9375.851563-4.144532 0-6.082032-.40625-.96875-.976562-1.863281-1.683594-2.640625zm0 0" fill="#ed539d"/></svg>