<svg viewBox="0 0 474 474.5" xmlns="http://www.w3.org/2000/svg"><path d="M345.29 321.8a16 16 0 0 0 0-22.63l-169.7-169.7a16 16 0 0 0-22.63 22.62l169.7 169.7a16 16 0 0 0 22.63 0z" fill="#933ec5"/><path d="M322.65 321.78l-27.28 12.88a24 24 0 1 0-41.76 19.84l-33.92 16.08a49.35 49.35 0 0 0-10.16-14.88 48 48 0 0 0-76.64 56L.25 474.5l33.76-71.28a40 40 0 1 0 34.24-72.32l39.68-83.76a40.06 40.06 0 0 0 33.84-71.44l11.2-23.6z" fill="#ed539d"/><path d="M141.64 355.73a48.25 48.25 0 0 0-8.8 55.95l86.78-41.07a48 48 0 0 0-78.01-14.88z" fill="#7ed63e"/><path d="M147.3 236.94a40 40 0 0 0-5.54-61.2l-33.83 71.39c14 4 29.07.1 39.37-10.19z" fill="#ffcd00"/><path d="M233.53 276.54a24 24 0 1 1-48 0 24 24 0 0 1 48 0z" fill="#ff3051"/><path d="M140.67 304.82a16 16 0 1 1-32 0 16 16 0 0 1 32 0z" fill="#ffcd00"/><path d="M79.42 395.33a40 40 0 0 0-11.15-64.43L34 403.2a40.09 40.09 0 0 0 45.43-7.87z" fill="#2488ff"/><g fill="#d54b8d"><path d="M51.43 407.03c1.5-.02 3-.11 4.5-.29l-5.92 12.48-19.36 40.88-30.4 14.4 33.76-71.28a40.8 40.8 0 0 0 17.42 3.8zM128.65 247.38c1.09-.25 2.16-.57 3.2-.96l-7.92 16.72-39.04 82.4c-.48-.72-.96-1.44-1.52-2.16a35.57 35.57 0 0 0-3.92-4.64 41.11 41.11 0 0 0-11.2-7.84l39.68-83.76a40.48 40.48 0 0 0 17.44.96c1.1-.16 2.2-.4 3.28-.72zM154.73 190.74c-.32-.72-.7-1.41-1.12-2.08a40.25 40.25 0 0 0-11.84-12.96l11.2-23.6 16 16-11.2 23.6-1.36 2.88c-.5-1.3-1.06-2.59-1.68-3.84z"/></g><path d="M156.41 194.58l-24.56 51.84a44.05 44.05 0 0 1-6.48 1.68 40.47 40.47 0 0 1-17.44-.96l33.84-71.44a40.26 40.26 0 0 1 10.64 10.96c.47.62.88 1.3 1.2 2a40.36 40.36 0 0 1 2.8 5.92z" fill="#e5b800"/><path d="M84.9 345.54l-.65 1.36-28.32 59.84c-1.52.16-3.04.24-4.48.32a41.28 41.28 0 0 1-17.44-3.84l34.24-72.32a41.11 41.11 0 0 1 11.2 7.84 35.57 35.57 0 0 1 3.92 4.64c.56.72 1.04 1.44 1.52 2.16z" fill="#207ae5"/><path d="M254.78 321.8a23.91 23.91 0 0 0-1.13 32.7l41.75-19.8a24 24 0 0 0-40.62-12.9z" fill="#c2fb3b"/><path d="M386.33 48.42a16 16 0 1 1-32 0 16 16 0 0 1 32 0z" fill="#ff3051"/><path d="M370.33 184.42a16 16 0 1 1-32 0 16 16 0 0 1 32 0z" fill="#ffcd00"/><path d="M226.33 40.42a16 16 0 1 1-32 0 16 16 0 0 1 32 0z" fill="#c2fb3b"/><path d="M380.11 96.42h-14.45a71.67 71.67 0 0 0-66.85 45.26l-15.9 39.76a8 8 0 0 0 14.86 5.96l15.9-39.78a55.73 55.73 0 0 1 52-35.2h14.45a72 72 0 0 0 63.56-38.2l29.85-62.34a8 8 0 1 0-14.4-6.91l-29.7 62a55.93 55.93 0 0 1-49.32 29.45z" fill="#ffcd00"/><path d="M227.43 135.13a8 8 0 0 0 7.63 8.36h.37a8 8 0 0 0 8-7.63l1.73-37.7A55.95 55.95 0 0 1 275 49.08l12.8-6.75a71.7 71.7 0 0 0 30.1-30.2 8 8 0 1 0-14.16-7.43 55.76 55.76 0 0 1-23.42 23.48l-12.8 6.75a71.79 71.79 0 0 0-38.35 62.8z" fill="#ff9811"/><path d="M466.33 168.42h-15.28a47.73 47.73 0 0 0-42.93 26.54l-9.9 19.77a31.8 31.8 0 0 1-28.6 17.69h-23.29a8 8 0 0 0 0 16h23.28a47.73 47.73 0 0 0 42.93-26.54l9.9-19.77a31.8 31.8 0 0 1 28.61-17.69h15.28a8 8 0 0 0 0-16z" fill="#91dc5a"/><path d="M295.98 102.07a8 8 0 0 0-11.31-11.31l-8 8a8.01 8.01 0 1 0 11.31 11.31z" fill="#ff3051"/><path d="M394.33 272.42h-16a8 8 0 0 0 0 16h16a8 8 0 0 0 0-16z" fill="#ff9811"/><path d="M436.67 250.76l-8 8a8.01 8.01 0 1 0 11.31 11.31l8-8a8 8 0 0 0-11.31-11.31z" fill="#ffcd00"/><path d="M414.75 137.26l-16 8a8 8 0 0 0 7.15 14.32l16-8a8 8 0 1 0-7.15-14.32z" fill="#ff9811"/><path d="M194.33 88.42v8a8 8 0 0 0 16 0v-8a8 8 0 0 0-16 0z" fill="#ff3051"/><path d="M308.65 58.74a8 8 0 0 0 7.2 13.52 4.8 4.8 0 0 0 1.52-.48c.51-.18 1-.42 1.44-.72.42-.3.82-.62 1.2-.96a8.02 8.02 0 1 0-11.36-11.36z" fill="#ffcd00"/><path d="M261.84 15.06c.45.3.94.54 1.45.72.48.24 1 .4 1.52.48.5.1 1.01.15 1.52.16.5-.01 1.01-.07 1.51-.16a4.8 4.8 0 0 0 1.53-.48c.49-.16.95-.4 1.36-.72a7.79 7.79 0 0 0 2.96-9.68c-.39-1-.99-1.9-1.76-2.64a8.62 8.62 0 0 0-2.56-1.68c-.48-.24-1-.4-1.53-.48-1-.24-2.04-.24-3.03 0-.53.07-1.04.24-1.52.48-.51.17-1 .42-1.45.72l-1.2.96a8.11 8.11 0 0 0 0 11.36z" fill="#a25bcd"/><path d="M270.73 145.78a4.64 4.64 0 0 0-1.36-.72c-.48-.24-1-.4-1.53-.48-1-.24-2.04-.24-3.03 0-.53.07-1.04.24-1.52.48-.51.18-1 .42-1.45.72-.41.3-.81.62-1.2.96a8.11 8.11 0 0 0 0 11.36l1.2.96c.45.3.94.54 1.45.72.48.25 1 .4 1.52.48.5.1 1.01.15 1.52.16.5-.01 1.01-.07 1.5-.16a4.8 4.8 0 0 0 1.54-.48c.49-.16.95-.4 1.36-.72a8.12 8.12 0 0 0 3.6-6.64 8.05 8.05 0 0 0-.64-3.04c-.39-1-.99-1.9-1.76-2.64a8.62 8.62 0 0 0-1.2-.96z" fill="#2488ff"/><path d="M452.65 122.74a9.31 9.31 0 0 0-1.68 2.64 7.56 7.56 0 0 0 0 6.08c.4.97.98 1.86 1.68 2.64a8.23 8.23 0 0 0 5.68 2.32 8.4 8.4 0 0 0 5.68-2.32 9.22 9.22 0 0 0 1.68-2.64 7.56 7.56 0 0 0 0-6.08 9.24 9.24 0 0 0-1.68-2.64 8.37 8.37 0 0 0-11.36 0z" fill="#57a4ff"/><path d="M418.33 24.42a7.92 7.92 0 0 0 8-8 8.42 8.42 0 0 0-2.32-5.68 8.37 8.37 0 0 0-11.36 0 8.11 8.11 0 0 0 0 11.36 8.38 8.38 0 0 0 5.68 2.32z" fill="#b2fa09"/><path d="M308.65 202.74a8 8 0 0 0 7.2 13.52 4.8 4.8 0 0 0 1.52-.48c.51-.18 1-.42 1.44-.72l1.2-.96a8.02 8.02 0 1 0-11.36-11.36z" fill="#ff3051"/><path d="M464.01 210.74a8.37 8.37 0 0 0-11.36 0 9.31 9.31 0 0 0-1.68 2.64 7.56 7.56 0 0 0 0 6.08c.4.97.98 1.86 1.68 2.64a8.23 8.23 0 0 0 5.68 2.32 8.4 8.4 0 0 0 5.68-2.32 9.22 9.22 0 0 0 1.68-2.64 7.56 7.56 0 0 0 0-6.08 9.24 9.24 0 0 0-1.68-2.64z" fill="#ed539d"/></svg>
