<svg xmlns="http://www.w3.org/2000/svg" viewBox="0 0 512 512"><path d="M250.66 230.95a.91.91 0 0 0 1.49 0c2.95-4.08 14.69-18.26 35.03-18.26 21.17 0 35.77 19.85 35.77 42.98 0 26.43-19.4 57.64-69.64 84.92a4 4 0 0 1-3.81 0c-50.23-27.28-69.64-58.5-69.64-84.92 0-23.13 14.6-42.98 35.77-42.98 20.35 0 32.08 14.18 35.03 18.26z" fill="#dc527c"/><path d="M287.18 212.69a41.17 41.17 0 0 0-16.52 3.4c13.12 6.63 21.38 22.18 21.38 39.58 0 23.9-15.9 51.72-56.09 77 4.25 2.67 8.75 5.31 13.55 7.92a4 4 0 0 0 3.81 0c50.23-27.28 69.64-58.5 69.64-84.93 0-23.12-14.6-42.97-35.77-42.97z" fill="#bf476c"/><g fill="#e9937c"><path d="M1.47 245.84l45.18-36.85a140.41 140.41 0 0 0 29.31-32.8l43.47-67.52a36.3 36.3 0 0 1 43.05-14.44l55.8 20.5a18.5 18.5 0 0 1 10.7 10.21l12.16 29.04a20.93 20.93 0 0 1-7.73 25.54l-.42.27a21.6 21.6 0 0 1-29.94-5.96l-7.5-11.23a18.45 18.45 0 0 0-10.29-7.5l-20.28-5.77a9.92 9.92 0 0 0-11.58 5.09l-25.12 50.01a37.8 37.8 0 0 0-3.12 25.18l12.4 55.67a46.47 46.47 0 0 0 11.24 21.47L175.86 336c3.9 4.2 8.19 8.02 12.82 11.39l48.1 34.93a19.99 19.99 0 0 1 7.98 13.04l.74 4.67c2.08 13.08-10.75 23.53-23.12 18.82l-53.26-20.26-82.34-25.17a62.58 62.58 0 0 0-29.41-1.74L4.7 381.2A4 4 0 0 1 0 377.25v-128.3a4 4 0 0 1 1.47-3.11zM510.53 245.84L465.36 209a140.5 140.5 0 0 1-29.33-32.82l-43.46-67.5a36.3 36.3 0 0 0-43.05-14.45l-55.8 20.5a18.51 18.51 0 0 0-10.7 10.22l-12.16 29.04a20.92 20.92 0 0 0 7.73 25.53l.42.28a21.6 21.6 0 0 0 29.94-5.97l7.5-11.23a18.45 18.45 0 0 1 10.29-7.5l20.28-5.77a9.92 9.92 0 0 1 11.58 5.09l25.12 50.01a37.8 37.8 0 0 1 3.12 25.18l-12.4 55.67a46.47 46.47 0 0 1-11.24 21.47L336.14 336a87.6 87.6 0 0 1-12.82 11.39l-48.09 34.93a19.99 19.99 0 0 0-7.99 13.03l-.74 4.67c-2.08 13.1 10.75 23.54 23.13 18.83l53.25-20.26 82.34-25.17a62.58 62.58 0 0 1 29.41-1.74l52.66 9.51a4 4 0 0 0 4.71-3.94v-128.3a4 4 0 0 0-1.47-3.11z"/></g><path d="M481.48 222.14v154.39l25.81 4.66a4 4 0 0 0 4.71-3.94v-128.3a4 4 0 0 0-1.47-3.11l-29.05-23.7z" fill="#cf7d68"/></svg>