<svg height="512pt" viewBox="-14 0 512 512" width="512pt" xmlns="http://www.w3.org/2000/svg"><path d="m483.285156 241.644531c0 115.375-80.851562 211.863281-189 235.882813-16.949218 3.773437-34.566406 5.757812-52.640625 5.757812-133.457031 0-241.644531-108.1875-241.644531-241.640625 0-133.457031 108.1875-241.644531 241.644531-241.644531 18.074219 0 35.691407 1.984375 52.640625 5.757812 108.148438 24.023438 189 120.507813 189 235.886719zm0 0" fill="#a1cec8"/><path d="m483.285156 241.644531c0 115.375-80.851562 211.863281-189 235.882813-108.148437-24.019532-189-120.507813-189-235.882813 0-115.378906 80.851563-211.863281 189-235.886719 108.148438 24.023438 189 120.507813 189 235.886719zm0 0" fill="#d7f4f1"/><path d="m424.125 403.988281v75.597657c0 17.902343-14.515625 32.414062-32.414062 32.414062h-300.136719c-17.910157 0-32.421875-14.511719-32.421875-32.414062v-75.597657zm0 0" fill="#5780bc"/><path d="m424.125 403.988281v75.597657c0 17.902343-14.515625 32.414062-32.414062 32.414062h-226.304688c-17.898438 0-32.410156-14.511719-32.410156-32.414062v-75.597657zm0 0" fill="#769edd"/><path d="m274.914062 352.746094v51.242187h-66.539062v-51.242187" fill="#3a3d51"/><path d="m434.25 178.109375c0 24.667969-19.996094 44.667969-44.667969 44.667969-24.667969 0-44.667969-20-44.667969-44.667969s20-44.667969 44.667969-44.667969c24.671875 0 44.667969 20 44.667969 44.667969zm0 0" fill="#fff"/><path d="m388.105469 339.601562c-62.683594 11.964844-126.472657 16.1875-189.929688 12.644532-34.503906-1.921875-68.910156-6.132813-102.996093-12.644532 23.917968-21.191406 46.070312-43.46875 66.394531-66.613281 7.1875-8.179687 14.144531-16.464843 20.875-24.855469h118.386719c6.730468 8.390626 13.6875 16.675782 20.878906 24.855469 20.320312 23.144531 42.472656 45.421875 66.390625 66.613281zm0 0" fill="#67c67b"/><path d="m321.714844 272.988281c-6.949219.890625-13.910156 1.652344-20.878906 2.3125-39.371094 3.699219-79.015626 3.699219-118.386719 0-6.96875-.660156-13.929688-1.421875-20.875-2.3125 7.1875-8.179687 14.144531-16.464843 20.875-24.855469h118.386719c6.730468 8.390626 13.6875 16.675782 20.878906 24.855469zm0 0" fill="#45a354"/><path d="m224.464844 250.671875s-5.925782 61.929687-26.289063 101.574219c-34.503906-1.921875-68.910156-6.132813-102.996093-12.644532 23.917968-21.191406 46.070312-43.46875 66.394531-66.613281 7.1875-8.179687 14.144531-16.464843 20.875-24.855469h40.28125zm0 0" fill="#45a354"/><path d="m360.425781 239.667969c-19.757812 3.773437-39.632812 6.59375-59.589843 8.464843-34.304688 3.21875-68.816407 3.636719-103.171876 1.242188-5.078124-.355469-10.148437-.761719-15.214843-1.242188-19.957031-1.871093-39.832031-4.691406-59.589844-8.464843 23.863281-21.148438 45.566406-43.625 65.023437-67.113281 5.277344-6.382813 10.398438-12.832032 15.351563-19.363282h76.820313c4.953124 6.53125 10.070312 12.980469 15.347656 19.363282 19.457031 23.488281 41.160156 45.964843 65.023437 67.113281zm0 0" fill="#67c67b"/><path d="m295.402344 172.554688c-35.714844 4.210937-71.804688 4.210937-107.519532 0 5.277344-6.382813 10.398438-12.832032 15.351563-19.363282h76.820313c4.953124 6.53125 10.070312 12.980469 15.347656 19.363282zm0 0" fill="#45a354"/><path d="m233.753906 154.738281s-19.195312 58.304688-36.089844 94.636719c-5.078124-.355469-10.148437-.761719-15.214843-1.242188-19.957031-1.871093-39.832031-4.691406-59.589844-8.464843 23.863281-21.148438 45.566406-43.625 65.023437-67.113281 5.277344-6.382813 10.398438-12.832032 15.351563-19.363282h28.804687zm0 0" fill="#45a354"/><path d="m102.769531 116.984375c-3.351562 0-6.378906-2.207031-7.429687-5.378906-1.042969-3.136719.058594-6.710938 2.707031-8.699219 5.648437-4.238281 13.863281.882812 12.390625 7.855469-.761719 3.582031-3.996094 6.222656-7.667969 6.222656zm0 0" fill="#fff"/><path d="m327.859375 146.660156c-37.796875 7.210938-76.257813 9.636719-114.511719 7.273438-19.394531-1.191406-38.746094-3.613282-57.917968-7.273438 35.527343-31.46875 64.417968-66.996094 86.203124-104.5625.011719-.007812.011719-.019531.011719-.019531 21.785157 37.574219 50.675781 73.101563 86.214844 104.582031zm0 0" fill="#67c67b"/><path d="m126.277344 192.21875c-3.269532 0-6.273438-2.125-7.367188-5.199219-1.144531-3.214843-.039062-6.902343 2.707032-8.933593 5.703124-4.21875 13.871093 1.046874 12.308593 8.007812-.792969 3.539062-4.023437 6.125-7.648437 6.125zm0 0" fill="#fff"/><path d="m450.980469 243.222656c-7.054688 0-10.46875-9.011718-5.210938-13.691406 2.585938-2.300781 6.511719-2.617188 9.429688-.75 2.609375 1.671875 4.027343 4.839844 3.511719 7.898438-.632813 3.722656-3.945313 6.542968-7.730469 6.542968zm0 0" fill="#fff"/><path d="m241.632812 42.097656c-.28125 1.378906-14.597656 68.546875-28.285156 111.835938-19.394531-1.191406-38.746094-3.613282-57.917968-7.273438 35.527343-31.46875 64.417968-66.996094 86.203124-104.5625zm0 0" fill="#45a354"/><g fill="#fff"><path d="m364.945312 386.652344c-3.277343 0-6.277343-2.117188-7.382812-5.203125-1.0625-2.96875-.183594-6.421875 2.183594-8.507813 2.375-2.089844 5.890625-2.550781 8.714844-1.121094 2.914062 1.472657 4.671874 4.699219 4.253906 7.949219-.492188 3.863281-3.855469 6.882813-7.769532 6.882813zm0 0"/><path d="m61.796875 258.046875c-3.136719 0-6.039063-1.953125-7.238281-4.847656-1.359375-3.28125-.285156-7.171875 2.566406-9.289063 2.738281-2.03125 6.59375-2.023437 9.335938 0 2.519531 1.859375 3.710937 5.1875 2.929687 8.222656-.882813 3.421876-4.046875 5.914063-7.59375 5.914063zm0 0"/><path d="m92.226562 303.824219c-3.082031 0-5.914062-1.855469-7.164062-4.664063-1.414062-3.175781-.496094-7.019531 2.1875-9.226562 5.472656-4.503906 13.941406.390625 12.691406 7.398437-.664062 3.699219-3.9375 6.492188-7.714844 6.492188zm0 0"/><path d="m299.117188 62.496094c-3.28125 0-6.273438-2.128906-7.382813-5.207032-1.152344-3.199218-.027344-6.910156 2.707031-8.929687 2.75-2.03125 6.589844-2.023437 9.335938 0 2.574218 1.894531 3.742187 5.3125 2.878906 8.382813-.9375 3.34375-4.046875 5.753906-7.539062 5.753906zm0 0"/><path d="m372.257812 115.929688c-7.09375 0-10.558593-9.199219-5.074218-13.816407 2.433594-2.054687 5.957031-2.425781 8.761718-.929687 2.832032 1.503906 4.492188 4.699218 4.089844 7.878906-.492187 3.855469-3.878906 6.867188-7.777344 6.867188zm0 0"/><path d="m292.847656 219.761719c-3.136718 0-6.039062-1.941407-7.242187-4.835938-1.332031-3.199219-.332031-7.058593 2.414062-9.183593 5.496094-4.257813 13.792969.570312 12.542969 7.519531-.667969 3.699219-3.933594 6.5-7.714844 6.5zm0 0"/><path d="m394.203125 278.746094c-3.28125 0-6.273437-2.113282-7.382813-5.195313-1.125-3.132812-.078124-6.730469 2.523438-8.792969 5.652344-4.484374 14.109375.847657 12.492188 7.875-.808594 3.523438-3.996094 6.113282-7.632813 6.113282zm0 0"/><path d="m201.941406 322.121094c-3.28125 0-6.273437-2.117188-7.382812-5.199219-1.125-3.132813-.078125-6.726563 2.527344-8.792969 5.648437-4.484375 14.105468.847656 12.492187 7.875-.8125 3.527344-4 6.117188-7.636719 6.117188zm0 0"/><path d="m228.0625 130.046875c-7.261719 0-10.589844-9.5-4.855469-13.988281 5.636719-4.410156 14.011719.746094 12.523438 7.765625-.761719 3.582031-4.003907 6.222656-7.667969 6.222656zm0 0"/></g></svg>