<svg viewBox="-14 0 512 512" xmlns="http://www.w3.org/2000/svg"><path d="M483.29 241.64c0 115.38-80.85 211.86-189 235.88a242.02 242.02 0 0 1-52.64 5.76C108.19 483.28 0 375.08 0 241.64 0 108.18 108.2 0 241.65 0c18.07 0 35.69 1.98 52.64 5.76 108.15 24.02 189 120.5 189 235.89z" fill="#a1cec8"/><path d="M483.29 241.64c0 115.38-80.85 211.86-189 235.88-108.15-24.02-189-120.51-189-235.88 0-115.38 80.85-211.86 189-235.89 108.15 24.02 189 120.51 189 235.89z" fill="#d7f4f1"/><path d="M424.12 403.99v75.6A32.42 32.42 0 0 1 391.71 512H91.57a32.42 32.42 0 0 1-32.43-32.41v-75.6z" fill="#5780bc"/><path d="M424.12 403.99v75.6A32.42 32.42 0 0 1 391.71 512H165.4A32.41 32.41 0 0 1 133 479.6v-75.6z" fill="#769edd"/><path d="M274.91 352.75v51.24h-66.54v-51.24" fill="#3a3d51"/><path d="M434.25 178.11a44.67 44.67 0 1 1-89.33 0 44.67 44.67 0 0 1 89.33 0z" fill="#fff"/><path d="M388.11 339.6a780.85 780.85 0 0 1-292.93 0 752.18 752.18 0 0 0 66.4-66.61 723.3 723.3 0 0 0 20.87-24.86h118.39A718.8 718.8 0 0 0 321.72 273a751.31 751.31 0 0 0 66.39 66.61z" fill="#67c67b"/><path d="M321.71 272.99a632.88 632.88 0 0 1-160.14 0 723.3 723.3 0 0 0 20.87-24.86h118.4A718.8 718.8 0 0 0 321.7 273z" fill="#45a354"/><path d="M224.46 250.67s-5.93 61.93-26.29 101.57a780.11 780.11 0 0 1-103-12.64 752.18 752.18 0 0 0 66.4-66.62 723.3 723.3 0 0 0 20.87-24.85h40.28z" fill="#45a354"/><path d="M360.43 239.67a633.2 633.2 0 0 1-237.56 0 608.15 608.15 0 0 0 65.02-67.11 589.32 589.32 0 0 0 15.35-19.37h76.82a587.06 587.06 0 0 0 15.35 19.37 608.15 608.15 0 0 0 65.02 67.11z" fill="#67c67b"/><path d="M295.4 172.55a459.14 459.14 0 0 1-107.52 0 589.32 589.32 0 0 0 15.35-19.36h76.82a587.06 587.06 0 0 0 15.35 19.36z" fill="#45a354"/><path d="M233.75 154.74s-19.2 58.3-36.09 94.64a632.12 632.12 0 0 1-74.8-9.7 608.15 608.15 0 0 0 65.02-67.12 589.32 589.32 0 0 0 15.35-19.37h28.8z" fill="#45a354"/><path d="M102.77 116.98a7.9 7.9 0 0 1-7.43-5.38 7.88 7.88 0 0 1 2.7-8.7c5.66-4.24 13.87.88 12.4 7.86a7.9 7.9 0 0 1-7.67 6.22z" fill="#fff"/><path d="M327.86 146.66a459.7 459.7 0 0 1-172.43 0c35.53-31.47 64.42-67 86.2-104.56.02 0 .02-.02.02-.02 21.78 37.57 50.67 73.1 86.21 104.58z" fill="#67c67b"/><path d="M126.28 192.22a7.9 7.9 0 0 1-7.37-5.2 7.9 7.9 0 0 1 2.71-8.93c5.7-4.22 13.87 1.04 12.3 8a7.91 7.91 0 0 1-7.64 6.13zM450.98 243.22c-7.05 0-10.47-9.01-5.21-13.7a7.92 7.92 0 0 1 9.43-.74 7.93 7.93 0 0 1 3.51 7.9 7.92 7.92 0 0 1-7.73 6.54z" fill="#fff"/><path d="M241.63 42.1c-.28 1.38-14.6 68.54-28.29 111.84a458.96 458.96 0 0 1-57.91-7.28c35.52-31.46 64.41-67 86.2-104.56z" fill="#45a354"/><g fill="#fff"><path d="M364.95 386.65a7.91 7.91 0 0 1-7.38-5.2 7.93 7.93 0 0 1 2.18-8.51 7.92 7.92 0 0 1 8.72-1.12 7.88 7.88 0 0 1 4.25 7.95 7.93 7.93 0 0 1-7.77 6.88zM61.8 258.05a7.92 7.92 0 0 1-7.24-4.85 7.9 7.9 0 0 1 2.57-9.29 7.93 7.93 0 0 1 9.33 0 7.9 7.9 0 0 1 2.93 8.23 7.93 7.93 0 0 1-7.6 5.91zM92.23 303.82a7.9 7.9 0 0 1-7.17-4.66 7.9 7.9 0 0 1 2.19-9.23c5.47-4.5 13.94.39 12.7 7.4a7.92 7.92 0 0 1-7.72 6.49zM299.12 62.5a7.93 7.93 0 0 1-7.38-5.21 7.9 7.9 0 0 1 2.7-8.93 7.93 7.93 0 0 1 9.34 0 7.89 7.89 0 0 1 2.88 8.38 7.91 7.91 0 0 1-7.54 5.76zM372.26 115.93c-7.1 0-10.56-9.2-5.07-13.82a7.92 7.92 0 0 1 8.76-.93 7.9 7.9 0 0 1 4.09 7.88 7.94 7.94 0 0 1-7.78 6.87zM292.85 219.76a7.91 7.91 0 0 1-7.24-4.84 7.92 7.92 0 0 1 2.41-9.18c5.5-4.26 13.8.57 12.54 7.52a7.92 7.92 0 0 1-7.71 6.5zM394.2 278.75a7.91 7.91 0 0 1-7.38-5.2 7.92 7.92 0 0 1 2.52-8.79c5.65-4.48 14.11.85 12.5 7.88a7.9 7.9 0 0 1-7.64 6.11zM201.94 322.12a7.92 7.92 0 0 1-7.38-5.2 7.92 7.92 0 0 1 2.52-8.8c5.65-4.48 14.1.86 12.5 7.88a7.91 7.91 0 0 1-7.64 6.12zM228.06 130.05c-7.26 0-10.59-9.5-4.86-13.99 5.64-4.4 14.02.75 12.53 7.77a7.92 7.92 0 0 1-7.67 6.22z"/></g></svg>
